<svg width="427" height="484" viewBox="0 0 427 484" fill="none" xmlns="http://www.w3.org/2000/svg">
<path d="M102.75 79.5663C104.938 77.5337 107.163 75.6234 109.388 73.7131L378.484 254.966C378.561 258.426 378.637 261.887 378.615 265.378L102.75 79.5663Z" fill="#FB9DA6"/>
<path d="M75.69 113.057C77.201 110.569 78.7491 108.203 80.2972 105.837L374.879 304.353C374.278 307.357 373.715 310.484 372.979 313.397L75.69 113.057Z" fill="#FB9DA6"/>
<path d="M141.352 53.9469C144.488 52.5525 147.758 51.2493 151.103 50.1906L369.304 197.162C370.464 201.352 371.487 205.451 372.548 209.671L141.352 53.9469Z" fill="#FB9DA6"/>
<path d="M201.612 42.9151C207.848 43.2197 213.998 43.9534 220.161 45.0852L332.781 120.942C337.041 126.83 341.043 132.934 344.824 139.377L201.612 42.9151Z" fill="#FB9DA6"/>
<path d="M49.4303 250.426C48.948 246.692 48.601 243.049 48.217 239.284L309.291 415.036C306.832 416.886 304.201 418.523 301.57 420.16L49.4303 250.426Z" fill="#FB9DA6"/>
<path d="M66.1904 313.335C64.293 308.843 62.5555 304.166 60.9162 299.458L264.092 436.31C260.182 437.279 256.234 438.127 252.311 438.698L66.1904 313.335Z" fill="#FB9DA6"/>
<path d="M57.7978 152.626C58.669 149.804 59.6757 147.073 60.6453 144.22L361.995 347.295C360.853 349.934 359.613 352.605 358.335 355.154L57.7978 152.626Z" fill="#FB9DA6"/>
<path d="M114.224 386.984L178.249 430.11C155.046 421.104 133.253 406.425 114.224 386.984Z" fill="#FB9DA6"/>
<path d="M48.4702 198.061C48.8001 194.875 49.1298 191.688 49.558 188.47L340.583 384.493C338.802 386.799 336.983 388.983 335.164 391.167L48.4702 198.061Z" fill="#FB9DA6"/>
</svg>
