<svg width="806" height="811" viewBox="0 0 806 811" fill="none" xmlns="http://www.w3.org/2000/svg">
<g opacity="0.5" filter="url(#filter0_d_125_137)">
<path d="M795.387 518.734C793.053 475.883 776.564 431.146 744.755 405.308C712.947 379.47 664.91 378.538 640.555 409.862C628.206 425.734 621.547 448.926 603.991 457.024C584.171 466.179 559.712 450.008 548.245 428.313C536.791 406.67 534.576 381.147 531.188 356.696C525.026 312.138 513.103 266.457 486.494 231.319C459.932 196.17 415.802 174.346 378.571 188.137C360.98 194.671 343.72 208.65 325.398 202.443C300.443 193.976 295.372 157.747 288.37 129.627C272.414 65.7739 218.368 14.012 160.076 6.70436C101.784 -0.603261 43.4673 37.031 21.577 96.1203C1.86609 149.342 10.7336 211.496 20.5138 269.889C37.6302 372.384 57.1461 476.205 100.42 570.192C143.694 664.179 214.306 748.415 303.432 781.011C370.948 805.675 443.553 798.878 509.186 776.256C570.395 755.161 626.55 721.03 681.743 686.404C703.619 672.704 725.288 659.166 748.037 647.219C762.321 639.694 774.22 632.525 781.752 616.366C794.558 588.98 797.201 549.916 795.387 518.734Z" fill="url(#paint0_linear_125_137)"/>
</g>
<defs>
<filter id="filter0_d_125_137" x="4.86374e-05" y="0.000292778" width="805.7" height="810.427" filterUnits="userSpaceOnUse" color-interpolation-filters="sRGB">
<feFlood flood-opacity="0" result="BackgroundImageFix"/>
<feColorMatrix in="SourceAlpha" type="matrix" values="0 0 0 0 0 0 0 0 0 0 0 0 0 0 0 0 0 0 127 0" result="hardAlpha"/>
<feOffset dy="4"/>
<feGaussianBlur stdDeviation="4.9"/>
<feComposite in2="hardAlpha" operator="out"/>
<feColorMatrix type="matrix" values="0 0 0 0 0 0 0 0 0 0 0 0 0 0 0 0 0 0 0.25 0"/>
<feBlend mode="normal" in2="BackgroundImageFix" result="effect1_dropShadow_125_137"/>
<feBlend mode="normal" in="SourceGraphic" in2="effect1_dropShadow_125_137" result="shape"/>
</filter>
<linearGradient id="paint0_linear_125_137" x1="252.899" y1="764.934" x2="498.644" y2="283.803" gradientUnits="userSpaceOnUse">
<stop offset="0.3725" stop-color="white"/>
<stop offset="1" stop-color="#FFC3C9"/>
</linearGradient>
</defs>
</svg>
