<svg width="131" height="57" viewBox="0 0 131 57" fill="none" xmlns="http://www.w3.org/2000/svg">
<path fill-rule="evenodd" clip-rule="evenodd" d="M52.9307 15.2065C51.4307 12.0399 46.0307 5.10654 36.4307 2.70654C26.8307 0.306535 17.4307 4.03987 13.9307 6.20654L1.93066 12.7065V21.7065H5.43066C4.93066 29.7065 5.93066 46.6065 13.9307 50.2065C21.9307 53.8065 32.264 55.0399 36.4307 55.2065C42.4307 52.5399 55.3307 45.1065 58.9307 36.7065C62.5307 28.3065 67.4307 30.8732 69.4307 33.2065C71.4307 39.7065 80.7307 53.2065 101.931 55.2065C123.531 48.8065 125.931 29.8732 124.431 21.2065H128.431V13.2065C121.597 7.70654 104.531 -1.79346 90.9307 4.20654C77.3307 10.2065 72.9307 18.0399 72.4307 21.2065L69.4307 24.2065H59.9307L52.9307 15.2065ZM21.4307 12.7065C27.4307 8.70654 34.9307 10.3732 37.9307 11.7065C51.9307 16.1065 49.0973 31.8732 45.9307 39.2065C41.5973 44.0399 30.1307 51.7065 18.9307 43.7065C4.93066 33.7065 13.9307 17.7065 21.4307 12.7065ZM80.4307 24.2065C82.8307 15.4065 89.4307 11.5399 92.4307 10.7065C105.947 7.10655 114.063 16.2065 116.431 21.2065C117.431 26.3732 117.231 38.2065 108.431 44.2065C99.6307 50.2065 91.0973 46.0399 87.9307 43.2065C84.4307 40.5399 78.0307 33.0065 80.4307 24.2065Z" fill="#BF9A8A"/>
<path fill-rule="evenodd" clip-rule="evenodd" d="M52.9307 15.2065C51.4307 12.0399 46.0307 5.10654 36.4307 2.70654C26.8307 0.306535 17.4307 4.03987 13.9307 6.20654L1.93066 12.7065V21.7065H5.43066C4.93066 29.7065 5.93066 46.6065 13.9307 50.2065C21.9307 53.8065 32.264 55.0399 36.4307 55.2065C42.4307 52.5399 55.3307 45.1065 58.9307 36.7065C62.5307 28.3065 67.4307 30.8732 69.4307 33.2065C71.4307 39.7065 80.7307 53.2065 101.931 55.2065C123.531 48.8065 125.931 29.8732 124.431 21.2065H128.431V13.2065C121.597 7.70654 104.531 -1.79346 90.9307 4.20654C77.3307 10.2065 72.9307 18.0399 72.4307 21.2065L69.4307 24.2065H59.9307L52.9307 15.2065ZM21.4307 12.7065C27.4307 8.70654 34.9307 10.3732 37.9307 11.7065C51.9307 16.1065 49.0973 31.8732 45.9307 39.2065C41.5973 44.0399 30.1307 51.7065 18.9307 43.7065C4.93066 33.7065 13.9307 17.7065 21.4307 12.7065ZM80.4307 24.2065C82.8307 15.4065 89.4307 11.5399 92.4307 10.7065C105.947 7.10655 114.063 16.2065 116.431 21.2065C117.431 26.3732 117.231 38.2065 108.431 44.2065C99.6307 50.2065 91.0973 46.0399 87.9307 43.2065C84.4307 40.5399 78.0307 33.0065 80.4307 24.2065Z" fill="#974E4E" fill-opacity="0.2"/>
<path d="M37.9307 11.7065C34.9307 10.3732 27.4307 8.70654 21.4307 12.7065C13.9307 17.7065 4.93066 33.7065 18.9307 43.7065C30.1307 51.7065 41.5973 44.0399 45.9307 39.2065C49.0973 31.8732 51.9307 16.1065 37.9307 11.7065Z" fill="#C6CEEE" fill-opacity="0.6"/>
<path d="M92.4307 10.7065C89.4307 11.5399 82.8307 15.4065 80.4307 24.2065C78.0307 33.0065 84.4307 40.5399 87.9307 43.2065C91.0973 46.0399 99.6307 50.2065 108.431 44.2065C117.231 38.2065 117.431 26.3732 116.431 21.2065C114.063 16.2065 105.947 7.10655 92.4307 10.7065Z" fill="#C6CEEE" fill-opacity="0.6"/>
<path fill-rule="evenodd" clip-rule="evenodd" d="M52.9307 15.2065C51.4307 12.0399 46.0307 5.10654 36.4307 2.70654C26.8307 0.306535 17.4307 4.03987 13.9307 6.20654L1.93066 12.7065V21.7065H5.43066C4.93066 29.7065 5.93066 46.6065 13.9307 50.2065C21.9307 53.8065 32.264 55.0399 36.4307 55.2065C42.4307 52.5399 55.3307 45.1065 58.9307 36.7065C62.5307 28.3065 67.4307 30.8732 69.4307 33.2065C71.4307 39.7065 80.7307 53.2065 101.931 55.2065C123.531 48.8065 125.931 29.8732 124.431 21.2065H128.431V13.2065C121.597 7.70654 104.531 -1.79346 90.9307 4.20654C77.3307 10.2065 72.9307 18.0399 72.4307 21.2065L69.4307 24.2065H59.9307L52.9307 15.2065ZM21.4307 12.7065C27.4307 8.70654 34.9307 10.3732 37.9307 11.7065C51.9307 16.1065 49.0973 31.8732 45.9307 39.2065C41.5973 44.0399 30.1307 51.7065 18.9307 43.7065C4.93066 33.7065 13.9307 17.7065 21.4307 12.7065ZM80.4307 24.2065C82.8307 15.4065 89.4307 11.5399 92.4307 10.7065C105.947 7.10655 114.063 16.2065 116.431 21.2065C117.431 26.3732 117.231 38.2065 108.431 44.2065C99.6307 50.2065 91.0973 46.0399 87.9307 43.2065C84.4307 40.5399 78.0307 33.0065 80.4307 24.2065Z" stroke="#B78B7E"/>
<path d="M37.9307 11.7065C34.9307 10.3732 27.4307 8.70654 21.4307 12.7065C13.9307 17.7065 4.93066 33.7065 18.9307 43.7065C30.1307 51.7065 41.5973 44.0399 45.9307 39.2065C49.0973 31.8732 51.9307 16.1065 37.9307 11.7065Z" stroke="#B78B7E"/>
<path d="M92.4307 10.7065C89.4307 11.5399 82.8307 15.4065 80.4307 24.2065C78.0307 33.0065 84.4307 40.5399 87.9307 43.2065C91.0973 46.0399 99.6307 50.2065 108.431 44.2065C117.231 38.2065 117.431 26.3732 116.431 21.2065C114.063 16.2065 105.947 7.10655 92.4307 10.7065Z" stroke="#B78B7E"/>
<path d="M51.8645 44.0569C47.5285 50.474 38.2541 54.6942 29.9237 54.6942C16.5952 54.6942 5.79178 43.8908 5.79178 30.5623L5.58907 21.0755L1.93066 21.1721V13.2047C1.93066 13.2047 38.4799 -18.0298 58.8434 23.4772H71.2453C91.6108 -18.0298 128.158 13.2066 128.158 13.2066V21.174L124.5 21.0775L124.297 30.5642C124.297 43.8908 113.494 54.6962 100.165 54.6962C91.8366 54.6962 82.5603 50.474 78.2243 44.0549M59.7064 36.3229C59.7064 34.7868 60.3166 33.3137 61.4027 32.2276C62.4889 31.1414 63.962 30.5312 65.4981 30.5312C67.0341 30.5312 68.5073 31.1414 69.5934 32.2276C70.6795 33.3137 71.2897 34.7868 71.2897 36.3229M49.2526 28.313C49.2526 38.5273 40.9723 46.8077 30.7579 46.8077C20.5436 46.8077 12.2632 38.5273 12.2632 28.313C12.2632 18.0986 20.5436 9.81824 30.7579 9.81824C40.9723 9.81824 49.2526 18.0986 49.2526 28.313ZM117.826 28.313C117.826 38.5273 109.545 46.8077 99.3309 46.8077C89.1165 46.8077 80.8362 38.5273 80.8362 28.313C80.8362 18.0986 89.1165 9.81824 99.3309 9.81824C109.545 9.81824 117.826 18.0986 117.826 28.313Z" stroke="#3B1C0F" stroke-width="3.86111" stroke-miterlimit="10" stroke-linecap="round" stroke-linejoin="round"/>
</svg>
