<svg width="82" height="103" viewBox="0 0 82 103" fill="none" xmlns="http://www.w3.org/2000/svg">
<path d="M41.0319 10.4659C63.7031 10.5152 82.0277 28.9924 81.9951 51.8477C81.9625 74.818 63.4666 93.1392 40.9626 93.1187C18.324 93.0981 -0.0740061 74.5716 -0.00468757 51.6629C0.064631 28.9801 18.2954 10.4823 41.0319 10.4659ZM5.06372 68.0087C5.08003 68.1853 5.17382 68.329 5.24721 68.481C8.14636 74.7277 12.3626 79.8819 17.8877 83.9437C21.6839 86.7323 25.8511 88.7571 30.3731 90.0302C31.4659 90.3383 32.5669 90.597 33.68 90.8065C34.1816 90.9009 34.6791 90.9913 35.1847 91.0611C35.674 91.1309 36.1633 91.2007 36.6567 91.2582C37.0563 91.3034 37.464 91.3239 37.8636 91.365C38.512 91.4348 39.1644 91.4512 39.8168 91.48C41.1216 91.5375 42.4223 91.48 43.7272 91.4061C43.7679 91.402 43.8046 91.402 43.8454 91.3979C44.2613 91.3568 44.6772 91.3157 45.0891 91.2788C45.7904 91.2213 46.4877 91.1186 47.1809 91.0077C47.9515 90.8845 48.7181 90.7366 49.4847 90.5682C51.2666 90.174 53.0158 89.6606 54.7243 89.0158C59.3401 87.2786 63.4911 84.761 67.1731 81.459C71.2874 77.7668 74.5005 73.397 76.8125 68.3536C77.8645 66.0578 78.68 63.684 79.2753 61.2322C79.5282 60.2013 79.7361 59.1581 79.8992 58.1067C80.0093 57.4086 80.1031 56.7022 80.1724 55.9958C80.2336 55.3674 80.2988 54.7431 80.3233 54.1107C80.3274 54.0203 80.3355 53.9259 80.3396 53.8355C80.4171 52.55 80.4007 51.2604 80.3559 49.9749C80.3559 49.9503 80.3518 49.9216 80.3518 49.8969C80.3151 49.3466 80.2784 48.7962 80.2336 48.2459C80.205 47.8804 80.1724 47.5108 80.1275 47.1493C80.0664 46.6688 79.993 46.1883 79.9278 45.7078C79.8013 44.7961 79.626 43.8966 79.4262 43.0013C78.8921 40.6439 78.1622 38.3481 77.2039 36.1262C74.2314 29.2347 69.6971 23.6246 63.6134 19.2877C60.0537 16.7495 56.1678 14.8809 51.9761 13.657C50.814 13.3161 49.6355 13.0286 48.4449 12.8069C47.9067 12.7083 47.3684 12.6097 46.8302 12.5235C46.3817 12.4537 45.925 12.4003 45.4724 12.3469C45.0972 12.3058 44.718 12.2771 44.3429 12.2401C43.6293 12.1703 42.9116 12.1251 42.1981 12.1128C40.6445 12.0799 39.095 12.1046 37.5497 12.2483C36.7708 12.3222 35.992 12.4044 35.2214 12.5194C34.4099 12.6385 33.6026 12.7904 32.7993 12.9588C31.1397 13.312 29.5087 13.7638 27.9144 14.3388C20.3138 17.0822 14.1037 21.7272 9.28808 28.2491C6.39708 32.1548 4.32976 36.4753 3.02902 41.1614C2.73543 42.2251 2.4867 43.297 2.29098 44.3812C2.20127 44.8864 2.10749 45.3875 2.03817 45.8967C1.96885 46.3896 1.89953 46.8865 1.84245 47.3793C1.79759 47.7818 1.77721 48.1925 1.73235 48.595C1.66304 49.2357 1.64672 49.8805 1.62226 50.5212C1.56925 51.8765 1.61003 53.2277 1.69566 54.5789C1.71604 54.9197 1.74459 55.2606 1.78128 55.6015C1.84245 56.1642 1.91584 56.7227 1.98516 57.2812C2.07079 58 2.1972 58.7105 2.33176 59.4169C2.53971 60.497 2.78844 61.573 3.09426 62.6326C3.26144 63.2117 3.44901 63.7867 3.62434 64.3617C3.64473 64.4274 3.66512 64.4849 3.71813 64.53C3.70182 64.6122 3.7222 64.6861 3.75075 64.76C3.84453 65.0188 3.93424 65.2734 4.02802 65.5321C4.31345 66.3166 4.62335 67.0887 4.96178 67.8485C4.98217 67.9101 4.99848 67.9758 5.06372 68.0087Z" fill="#1A253C"/>
<path d="M41.729 -0.00277897C41.7616 -0.0192069 41.782 -0.0397417 41.8065 -0.0397417C41.8839 -0.0438487 41.9614 -0.0397417 42.0389 -0.0356347C42.5567 0.00543498 43.0787 0.0465047 43.5965 0.0875744C43.6495 0.0916814 43.6985 0.0998953 43.7515 0.104002C44.2571 0.140965 44.7668 0.173821 45.2724 0.210784C45.7658 0.247746 46.2592 0.292923 46.7525 0.329886C47.1562 0.362741 47.5558 0.39149 47.9595 0.424346C47.9962 0.428453 48.037 0.43256 48.0737 0.448988C48.0941 0.457202 48.1145 0.485951 48.1185 0.506485C48.1267 0.543448 48.1226 0.584518 48.1185 0.625588C48.0737 1.24163 48.0247 1.85768 47.9799 2.46962C47.9432 2.96656 47.8983 3.4635 47.8616 3.96045C47.8576 4.02616 47.8494 4.09187 47.8453 4.15758C47.7964 4.82702 47.7434 5.49235 47.6945 6.16179C47.6578 6.67105 47.6251 7.18442 47.5884 7.69369C47.5762 7.86207 47.5558 8.03456 47.5395 8.20295C47.4987 8.71632 47.5721 8.6465 47.038 8.60954C46.4141 8.56847 45.7902 8.51508 45.1664 8.4658C45.0889 8.46169 45.0114 8.45347 44.934 8.43705C44.8973 8.42883 44.8646 8.39598 44.8646 8.3508C44.8687 8.16599 44.8728 7.98528 44.8891 7.80047C44.9299 7.22549 44.9747 6.65051 45.0196 6.07143C45.0604 5.54985 45.1011 5.02415 45.1419 4.50257C45.146 4.47793 45.146 4.44918 45.1501 4.42454C45.1786 4.01795 45.2112 3.61136 45.2398 3.20887C45.2479 3.08977 45.252 2.97478 45.252 2.85567C45.252 2.81871 45.2275 2.78175 45.1868 2.76943C45.1623 2.76121 45.1378 2.753 45.1134 2.74889C44.8402 2.73246 44.567 2.71604 44.2938 2.69961C44.253 2.6955 44.1878 2.75711 44.1837 2.79818C44.1796 2.82282 44.1755 2.85157 44.1755 2.87621C44.1429 3.36083 44.1103 3.84545 44.0736 4.33008C44.0369 4.83934 43.992 5.3486 43.9513 5.86198C43.939 5.9934 43.935 6.12482 43.9227 6.25625C43.8738 6.90925 43.8208 7.56637 43.7718 8.21938C43.7637 8.30152 43.727 8.33848 43.6495 8.33848C43.6251 8.33848 43.5965 8.33848 43.572 8.33848C43.4049 8.33027 43.2336 8.32205 43.0664 8.30973C42.4548 8.26045 41.8472 8.21116 41.2356 8.16188C41.1581 8.15367 41.1133 8.1126 41.1133 8.03867C41.1133 8.01403 41.1133 7.98528 41.1133 7.96064C41.1174 7.87029 41.1214 7.77583 41.1296 7.68547C41.1785 7.05711 41.2234 6.42874 41.2723 5.80037C41.3131 5.30343 41.3539 4.80648 41.3946 4.30954C41.4232 3.94402 41.4517 3.5785 41.4762 3.20887C41.5129 2.71193 41.5455 2.21499 41.5822 1.71804C41.6148 1.27449 41.6474 0.826829 41.6801 0.383276C41.6923 0.251853 41.7127 0.124537 41.729 -0.00277897Z" fill="#18243B"/>
<path d="M33.6514 3.15136C33.3945 3.176 33.1539 3.22939 32.9133 3.25814C32.5953 3.2951 32.6279 3.33617 32.6687 3.61134C32.7258 4.01382 32.7992 4.4122 32.8685 4.81468C32.8807 4.88039 32.8848 4.94611 32.893 5.01182C32.897 5.05699 32.8522 5.11449 32.8073 5.12681C32.7829 5.13503 32.7584 5.14324 32.7339 5.14735C32.1957 5.23359 31.6534 5.31984 31.1151 5.40609C30.8705 5.44305 30.6258 5.48412 30.3812 5.52108C30.3445 5.52519 30.267 5.4718 30.2589 5.43894C30.2018 5.08985 30.1447 4.74076 30.0876 4.39167C29.9897 3.79615 29.896 3.20064 29.8022 2.60513C29.741 2.2314 29.6798 1.85356 29.6228 1.47982C29.6146 1.41411 29.6146 1.3484 29.6064 1.27858C29.6391 1.25805 29.6676 1.22519 29.7002 1.21698C29.9163 1.1718 30.1365 1.13073 30.3526 1.09787C30.9194 1.00752 31.4821 0.921275 32.0489 0.826814C32.6157 0.736461 33.1784 0.633787 33.7452 0.543433C34.312 0.45308 34.8747 0.362727 35.4414 0.27648C35.5678 0.255945 35.6983 0.231303 35.8247 0.210769C35.8777 0.202555 35.9307 0.243624 35.9389 0.292908C35.9919 0.617359 36.049 0.937703 36.102 1.26215C36.1958 1.84534 36.2896 2.42853 36.3834 3.00762C36.4731 3.56616 36.5587 4.12061 36.6484 4.67915C36.7381 5.25002 36.8319 5.81678 36.9216 6.38765C36.9542 6.593 36.995 6.80246 37.0235 7.00781C37.1255 7.71831 36.7422 8.30972 36.049 8.49864C35.8125 8.56435 35.5638 8.5931 35.3191 8.63417C34.7279 8.73273 34.1366 8.82719 33.5454 8.92576C33.1743 8.98737 32.7992 9.04486 32.4281 9.10647C31.9796 9.18039 31.5311 9.25432 31.0784 9.32825C31.0417 9.33646 31.001 9.33646 30.9643 9.33646C30.9357 9.34057 30.8746 9.2995 30.8705 9.27896C30.846 9.16397 30.8216 9.04897 30.8052 8.92987C30.6992 8.26865 30.5932 7.60742 30.4872 6.95031C30.479 6.90102 30.5157 6.84353 30.5687 6.83531C30.8623 6.78192 31.16 6.72853 31.4536 6.67925C32.0693 6.57657 32.685 6.47801 33.3048 6.37533C33.5494 6.33426 33.7941 6.30141 34.0388 6.26444C34.1488 6.24802 34.1692 6.19052 34.1529 6.09606C34.1162 5.825 34.0755 5.54983 34.0306 5.27877C33.9368 4.69558 33.843 4.11239 33.7492 3.53331C33.737 3.45528 33.7289 3.37724 33.7085 3.29921C33.7003 3.24582 33.6718 3.20064 33.6514 3.15136Z" fill="#18243B"/>
<path d="M59.3646 3.41014C59.3402 3.5005 59.3198 3.59906 59.2872 3.69763C58.5654 6.02628 57.8437 8.35494 57.1179 10.6795C56.9466 11.2298 56.7713 11.7802 56.6 12.3305C56.5837 12.3798 56.5715 12.4332 56.5552 12.4824C56.5226 12.581 56.4696 12.6098 56.3799 12.5892C56.3554 12.581 56.3268 12.581 56.3024 12.5728C55.5847 12.3428 54.863 12.1169 54.1454 11.8869C54.1331 11.8828 54.1209 11.8787 54.1087 11.8746C53.9986 11.8376 53.9782 11.7925 54.0108 11.6652C54.023 11.6159 54.0393 11.5666 54.0556 11.5132C54.6836 9.50078 55.3075 7.48426 55.9354 5.47184C55.9762 5.34863 56.0129 5.22132 56.0496 5.094C56.0659 5.04472 56.0373 4.97079 55.9966 4.95847C55.7111 4.86812 55.4257 4.77776 55.1403 4.69152C55.0913 4.67509 55.0424 4.70795 55.0261 4.76955C54.8997 5.16793 54.7733 5.57041 54.6469 5.96879C54.5368 6.31788 54.4308 6.67108 54.3207 7.02017C54.3044 7.06945 54.284 7.11874 54.2595 7.16391C54.2391 7.19677 54.2024 7.21731 54.1617 7.20498C54.1127 7.19266 54.0638 7.17213 54.0149 7.1557C53.3176 6.93803 52.6244 6.72036 51.9272 6.49859C51.8782 6.48216 51.8293 6.46162 51.7844 6.43698C51.7518 6.41645 51.7314 6.37948 51.7396 6.33841C51.7559 6.27681 51.7681 6.2111 51.7885 6.14949C52.2452 4.67098 52.706 3.19658 53.1627 1.71807C53.183 1.65647 53.2075 1.59486 53.2279 1.53326C53.2524 1.46344 53.3054 1.4388 53.3829 1.45933C53.4195 1.46755 53.4603 1.47987 53.497 1.49219C55.3727 2.08359 57.2443 2.6791 59.12 3.27051C59.2056 3.29926 59.2994 3.31158 59.3646 3.41014Z" fill="#18243B"/>
<path d="M51.7641 100.626C51.7641 100.696 51.7641 100.762 51.7641 100.823C51.7682 101.349 51.389 101.858 50.8303 101.986C50.5531 102.051 50.2676 102.092 49.9863 102.138C49.4481 102.228 48.9057 102.314 48.3675 102.405C47.9312 102.478 47.4949 102.544 47.0586 102.626C46.6264 102.704 46.712 102.713 46.6101 102.314C46.1208 100.355 45.6478 98.392 45.1707 96.4289C45.081 96.0593 44.9872 95.6896 44.8934 95.3241C44.8853 95.2995 44.8812 95.2707 44.8771 95.2461C44.869 95.1968 44.9057 95.1475 44.9627 95.1352C45.0769 95.1106 45.1911 95.0859 45.3093 95.0695C46.0148 94.9545 46.7242 94.8395 47.4297 94.7204C48.29 94.5767 49.1504 94.4247 50.0108 94.2768C50.3574 94.2193 50.7039 94.166 51.0505 94.1085C51.0995 94.1002 51.1606 94.1454 51.1688 94.1906C51.1769 94.244 51.1851 94.2933 51.1933 94.3467C51.2177 94.6095 51.2422 94.8683 51.2666 95.1311C51.3033 95.55 51.336 95.9689 51.3727 96.3878C51.4094 96.7944 51.4542 97.1969 51.495 97.6035C51.5235 97.9033 51.5521 98.2031 51.5806 98.507C51.6173 98.9136 51.6499 99.3202 51.6866 99.7227C51.7029 100.027 51.7356 100.326 51.7641 100.626ZM49.1708 99.8213C49.1749 99.7925 49.1912 99.7555 49.1871 99.7186C49.1463 99.1313 49.1015 98.5399 49.0566 97.9526C49.0403 97.7555 49.024 97.5624 49.0077 97.3653C48.9995 97.2462 48.9873 97.1312 48.9791 97.0121C48.9751 96.9751 48.9057 96.9094 48.869 96.9135C48.5755 96.9587 48.2778 97.008 47.9842 97.0573C47.9394 97.0655 47.9027 97.1353 47.9108 97.1805C47.919 97.2174 47.923 97.2585 47.9353 97.2955C48.131 98.0553 48.3308 98.815 48.5265 99.5748C48.6366 99.9979 48.5999 99.9568 48.9791 99.8788C49.0444 99.8664 49.1096 99.8746 49.1708 99.8213Z" fill="#18243B"/>
<path d="M23.9185 96.9669C24.1794 96.1209 24.4445 95.2707 24.7095 94.4206C24.9052 93.7963 25.1009 93.1721 25.3007 92.5478C25.313 92.5109 25.3211 92.4698 25.3334 92.4328C25.3456 92.3918 25.419 92.3507 25.4598 92.3589C25.525 92.3753 25.5862 92.3877 25.6473 92.4082C27.3722 92.9544 29.097 93.5006 30.8218 94.0469C30.8952 94.0715 30.9686 94.0962 31.042 94.1208C31.0827 94.1331 31.1154 94.207 31.1031 94.2522C31.0909 94.3015 31.0787 94.3549 31.0623 94.4042C30.4833 96.2523 29.9084 98.1046 29.3294 99.9527C29.0603 100.815 28.7911 101.678 28.522 102.54C28.4976 102.614 28.4731 102.688 28.4446 102.762C28.4201 102.832 28.3712 102.852 28.2896 102.828C27.8451 102.684 27.3966 102.54 26.9522 102.4C26.6667 102.31 26.3813 102.22 26.0959 102.125C26.0714 102.117 26.0469 102.06 26.0469 102.027C26.051 101.977 26.0755 101.928 26.0918 101.875C26.2875 101.25 26.4792 100.626 26.6749 99.9979C27.0949 98.6467 27.5189 97.2996 27.9389 95.9484C27.9634 95.8745 27.9797 95.7964 27.996 95.7225C27.9634 95.6897 27.9389 95.6527 27.9063 95.6404C27.6372 95.55 27.364 95.4679 27.103 95.3816C26.997 95.4432 26.997 95.5459 26.9685 95.628C26.8258 96.0634 26.6953 96.5028 26.5566 96.9423C26.4955 97.1435 26.4384 97.3448 26.3691 97.5419C26.3446 97.6158 26.3365 97.698 26.2508 97.7555C26.1856 97.7431 26.1081 97.7349 26.0347 97.7103C25.3782 97.5049 24.7217 97.2955 24.0612 97.086C24.0041 97.0696 23.947 97.0409 23.9185 96.9669Z" fill="#19243B"/>
<path d="M63.7561 91.3855C63.7317 91.3855 63.7154 91.3814 63.7031 91.3855C63.6909 91.3855 63.6787 91.3896 63.6664 91.3938C63.642 91.4061 63.6175 91.4184 63.5971 91.4307C62.8591 91.8702 62.1169 92.3096 61.3789 92.7491C61.3667 92.7573 61.3544 92.7573 61.3341 92.7614C61.3055 92.7408 61.2688 92.7203 61.2484 92.6916C60.8774 92.0591 60.5063 91.4266 60.1393 90.7941C60.1353 90.7859 60.1353 90.7695 60.1353 90.7572C60.1516 90.7366 60.1597 90.7079 60.1801 90.6956C61.6562 89.8126 63.1323 88.9296 64.6124 88.0466C64.6328 88.0343 64.6613 88.0425 64.6899 88.0384C64.7918 88.1082 64.8285 88.2232 64.8897 88.3217C65.4972 89.3485 66.0966 90.3752 66.7001 91.402C66.904 91.7511 67.112 92.1002 67.3199 92.4492C67.3444 92.4903 67.3892 92.5232 67.4178 92.556C67.5972 92.5109 67.7114 92.3589 67.8948 92.3342C67.9315 92.3917 67.9723 92.441 68.0049 92.4985C68.3393 93.0612 68.6696 93.6279 68.9999 94.1906C69.0203 94.2235 69.0447 94.2604 69.0488 94.2974C69.0529 94.3302 69.0366 94.3754 69.0162 94.4001C68.9795 94.437 68.9346 94.4617 68.8898 94.4863C67.2873 95.4432 65.6889 96.396 64.0864 97.353C64.0416 97.3776 63.9967 97.4023 63.9478 97.4187C63.9274 97.4269 63.8988 97.4105 63.8785 97.3981C63.8662 97.394 63.8581 97.3817 63.8499 97.3694C63.4789 96.7369 63.1037 96.1086 62.7327 95.4761C62.7123 95.4432 62.7245 95.3898 62.753 95.3693C62.7857 95.3447 62.8142 95.3241 62.8509 95.3036C62.9528 95.242 63.0548 95.1845 63.1526 95.1229C63.7561 94.7615 64.3596 94.4001 64.9672 94.0386C65.0324 93.9976 65.0976 93.9565 65.167 93.9154C65.1955 93.8949 65.2077 93.8415 65.1914 93.8087C65.167 93.7635 65.1425 93.7142 65.118 93.669C64.7062 92.9708 64.2944 92.2685 63.8825 91.5704C63.8377 91.5046 63.7928 91.443 63.7561 91.3855Z" fill="#19243B"/>
<path d="M41.6722 98.6302C41.6232 99.6652 41.5702 100.704 41.5172 101.739C41.509 101.871 41.505 102.006 41.4642 102.125C41.2929 102.598 40.9545 102.877 40.4611 102.947C40.3469 102.963 40.2287 102.959 40.1104 102.955C39.1726 102.918 38.2348 102.877 37.2969 102.836C36.8525 102.815 36.4121 102.791 35.9676 102.77C35.9432 102.77 35.9146 102.766 35.8902 102.762C35.8412 102.758 35.7964 102.708 35.7964 102.655C35.8005 102.446 35.8045 102.236 35.8127 102.027C35.8331 101.554 35.8576 101.082 35.8779 100.61C35.882 100.556 35.8779 100.503 35.8942 100.454C35.9065 100.425 35.9473 100.392 35.9799 100.388C36.041 100.38 36.1104 100.384 36.1715 100.388C36.9911 100.425 37.8107 100.462 38.6344 100.495C38.7241 100.499 38.8179 100.503 38.9076 100.503C39.038 100.503 39.0666 100.474 39.0707 100.343C39.1074 99.4763 39.1481 98.6097 39.1848 97.7431C39.1848 97.7308 39.1848 97.7185 39.1889 97.7021C39.193 97.624 39.1522 97.5706 39.0829 97.5665C38.7037 97.546 38.3286 97.5214 37.9493 97.5008C37.3499 97.4721 36.7505 97.4433 36.1511 97.4146C36.0777 97.4105 36.0329 97.3612 36.0288 97.2914C36.0288 97.2503 36.0288 97.2133 36.0288 97.1723C36.0329 97.0655 36.037 96.9628 36.041 96.856C36.0614 96.3837 36.0859 95.9114 36.1063 95.4391C36.1104 95.3488 36.1144 95.2543 36.1226 95.164C36.1267 95.09 36.1797 95.0366 36.2408 95.0325C36.2653 95.0325 36.2938 95.0325 36.3183 95.0325C36.7342 95.049 37.1501 95.0695 37.5701 95.0859C37.6354 95.09 37.7006 95.0941 37.7658 95.0982C38.5732 95.1352 39.3806 95.1681 40.1879 95.205C40.6813 95.2256 41.1788 95.2543 41.6722 95.279C41.7619 95.2831 41.8067 95.3323 41.8026 95.4309C41.7945 95.6938 41.7863 95.9566 41.7741 96.2195C41.7578 96.548 41.7415 96.8766 41.7252 97.2051C41.7007 97.6774 41.6803 98.1497 41.6558 98.622C41.6681 98.6302 41.6681 98.6302 41.6722 98.6302Z" fill="#19243B"/>
<path d="M61.3503 8.92578C61.3626 8.91757 61.3707 8.90935 61.3829 8.90114C61.3911 8.89292 61.4033 8.88471 61.4074 8.87239C61.546 8.44937 61.6847 8.02635 61.8192 7.60334C61.8478 7.51709 61.8845 7.43495 61.8723 7.34049C61.8233 7.27478 61.7499 7.24603 61.6806 7.20907C61.4686 7.10639 61.2606 6.99961 61.0527 6.89694C61.0078 6.87229 60.9915 6.8148 61.016 6.76141C61.2198 6.33428 61.4237 5.91126 61.6276 5.48414C61.7458 5.23772 61.8682 4.9913 61.9905 4.74078C62.068 4.58471 62.0965 4.5765 62.2637 4.65864C62.6755 4.85988 63.0833 5.05701 63.4951 5.25826C63.9518 5.48003 64.4085 5.70591 64.8652 5.9318C64.9875 5.9893 64.9997 6.04269 64.9671 6.14947C64.8856 6.41231 64.7999 6.67516 64.7184 6.9339C64.0211 9.10238 63.3279 11.275 62.6307 13.4434C62.5981 13.542 62.5695 13.6447 62.5369 13.7433C62.5206 13.7925 62.488 13.8336 62.4676 13.8706C62.3983 13.8829 62.3534 13.8541 62.3086 13.8336C61.6521 13.5133 60.9956 13.1929 60.3432 12.8726C60.3065 12.8562 60.2698 12.8397 60.2453 12.811C60.2249 12.7863 60.2045 12.7412 60.2086 12.7083C60.2168 12.6426 60.2412 12.581 60.2657 12.5235C60.5267 11.7966 60.7876 11.0696 61.0486 10.3427C61.0731 10.2729 61.1097 10.1989 61.0812 10.1168C61.069 10.0839 61.0527 10.0757 61.02 10.0881C60.967 10.1045 60.9385 10.1497 60.9099 10.1907C60.5267 10.7862 60.1434 11.3776 59.7601 11.9732C59.6826 12.0923 59.6051 12.2155 59.5236 12.3346C59.5032 12.3633 59.4706 12.388 59.4461 12.4126C59.0832 12.273 57.5582 11.5255 57.3054 11.3612C57.2972 11.2709 57.3625 11.2175 57.4073 11.1559C57.7702 10.6754 58.1331 10.1948 58.496 9.71432C58.8345 9.26666 59.177 8.81489 59.5154 8.36723C59.5644 8.30563 59.6133 8.24813 59.6704 8.19063C59.6867 8.1742 59.7193 8.1701 59.7438 8.1742C59.7927 8.18653 59.8416 8.21117 59.8865 8.2317C60.3065 8.43705 60.7305 8.6424 61.1505 8.84775C61.2035 8.8806 61.2688 8.92989 61.3503 8.92578Z" fill="#19253C"/>
<path d="M24.8399 11.2749C24.7869 11.3119 24.7502 11.3448 24.7053 11.3653C24.004 11.7144 23.3027 12.0594 22.6013 12.4044C22.5768 12.4167 22.5483 12.4331 22.5279 12.429C22.4912 12.4208 22.4423 12.4085 22.426 12.3838C22.3648 12.2811 22.3159 12.1744 22.2629 12.0676C21.5575 10.6219 20.852 9.17217 20.1425 7.72651C20.0855 7.61152 20.0569 7.47599 19.9346 7.38974C19.7144 7.49652 19.4901 7.6033 19.2699 7.71419C18.4626 8.11257 17.6593 8.51505 16.852 8.91343C16.7949 8.94218 16.7337 8.97092 16.6766 8.99967C16.6399 9.0161 16.591 9.00378 16.5747 8.97092C16.5502 8.92575 16.5217 8.88057 16.4972 8.83539C16.1873 8.19881 15.8774 7.56223 15.5675 6.92976C15.5553 6.90512 15.5431 6.88458 15.5349 6.85994C15.5064 6.79834 15.5349 6.73673 15.6042 6.69977C15.6491 6.67513 15.698 6.65459 15.7429 6.62995C17.5044 5.75517 19.2699 4.88038 21.0315 4.0097C21.0763 3.98506 21.1252 3.96453 21.1742 3.94399C21.2231 3.92346 21.272 3.94399 21.3006 3.99738C21.3413 4.07952 21.3821 4.16166 21.4229 4.2438C22.3526 6.14943 23.2823 8.05507 24.212 9.96481C24.3995 10.355 24.5912 10.741 24.7787 11.1312C24.8032 11.1723 24.8195 11.2215 24.8399 11.2749Z" fill="#18243B"/>
<path d="M14.3159 95.1763C14.3934 95.0736 14.5076 95.012 14.6095 94.934C15.637 94.1701 16.6646 93.4021 17.6921 92.6382C18.1203 92.3178 18.5525 91.9975 18.9806 91.6771C19.0092 91.6566 19.0296 91.6196 19.05 91.5909C19.054 91.5827 19.054 91.5621 19.0459 91.5539C19.0418 91.5416 19.0296 91.5334 19.0214 91.5252C18.8175 91.4061 18.6177 91.287 18.4139 91.172C18.3812 91.1556 18.3405 91.1515 18.2956 91.135C18.2018 91.2952 18.1121 91.4554 18.0183 91.6114C17.9816 91.673 17.9123 91.6936 17.8512 91.6566C17.4108 91.402 16.9704 91.1473 16.53 90.8968C16.371 90.8065 16.212 90.7161 16.057 90.6217C16.0122 90.597 15.9959 90.5272 16.0203 90.4861C16.057 90.4163 16.0978 90.3506 16.1345 90.2808C16.4893 89.6524 16.844 89.0281 17.1988 88.3998C17.2395 88.33 17.2762 88.2643 17.317 88.1985C17.3619 88.1246 17.4108 88.1082 17.476 88.141C17.5209 88.1657 17.5657 88.1903 17.6147 88.2191C19.1641 89.1144 20.7095 90.0056 22.259 90.9009C22.3283 90.942 22.3936 90.9831 22.4588 91.0282C22.4874 91.0447 22.5037 91.1063 22.4873 91.135C22.4629 91.1802 22.4425 91.2295 22.414 91.2747C22.1856 91.673 21.9532 92.0673 21.7371 92.4698C21.6474 92.6382 21.525 92.7614 21.3742 92.8723C20.053 93.8579 18.736 94.8436 17.4189 95.8293C17.1661 96.0182 16.9174 96.2071 16.6646 96.3919C16.6116 96.4289 16.5545 96.4577 16.5096 96.4864C16.1264 96.3016 14.479 95.3488 14.3322 95.2256C14.32 95.2132 14.32 95.1968 14.3159 95.1763Z" fill="#19253C"/>
<path d="M32.2283 99.7432C32.2528 99.6857 32.2773 99.6405 32.2854 99.5913C32.3262 99.3859 32.367 99.1806 32.4037 98.9752C32.5137 98.3551 32.6198 97.7349 32.7258 97.1148C32.738 97.0491 32.7421 96.9833 32.7421 96.9176C32.7421 96.8971 32.7217 96.8642 32.7013 96.856C32.6279 96.8314 32.5545 96.8067 32.477 96.7944C32.2609 96.7534 32.0407 96.7205 31.8246 96.6835C31.7553 96.6712 31.7105 96.6096 31.7186 96.5439C31.7512 96.3221 31.7839 96.1045 31.8246 95.8827C31.898 95.4556 31.9714 95.0284 32.0489 94.6054C32.0611 94.5397 32.0774 94.4781 32.0938 94.4165C32.1101 94.359 32.1549 94.3261 32.2079 94.3302C32.2854 94.3385 32.3629 94.3426 32.4404 94.3549C33.4638 94.5356 34.4914 94.7163 35.5148 94.9011C35.5271 94.9052 35.5393 94.9052 35.5515 94.9093C35.5964 94.9175 35.6412 94.975 35.6331 95.0243C35.5964 95.2584 35.5638 95.4925 35.523 95.7225C35.4292 96.2646 35.3354 96.8067 35.2376 97.3489C35.1438 97.8787 35.05 98.4085 34.9603 98.9383C34.8706 99.4557 34.7809 99.9732 34.6912 100.487C34.6382 100.782 34.5933 101.082 34.5321 101.378C34.4302 101.875 34.1203 102.183 33.6351 102.31C33.4557 102.359 33.2803 102.368 33.0928 102.331C32.4934 102.22 31.8899 102.117 31.2864 102.01C30.9276 101.949 30.5688 101.887 30.2099 101.821C30.1365 101.809 30.1039 101.756 30.1121 101.678C30.1121 101.665 30.1161 101.653 30.1202 101.641C30.1936 101.214 30.2629 100.786 30.3363 100.359C30.3812 100.088 30.4301 99.8172 30.479 99.5461C30.4872 99.5009 30.5484 99.4557 30.5973 99.464C30.8297 99.5009 31.0581 99.542 31.2905 99.579C31.6045 99.6364 31.9103 99.6898 32.2283 99.7432Z" fill="#19253C"/>
<path d="M40.3265 4.18225C40.3673 5.12685 40.4121 6.07145 40.4529 7.01606C40.4692 7.36926 40.4774 7.72656 40.4896 8.07976C40.4937 8.22761 40.4692 8.25225 40.3061 8.26047C39.825 8.28511 39.3438 8.30564 38.8627 8.32618C38.6017 8.3385 38.3407 8.34671 38.0798 8.35904C38.0553 8.35904 38.0268 8.36314 38.0023 8.36314C37.8759 8.36725 37.8311 8.33029 37.827 8.21529C37.8025 7.59925 37.774 6.9832 37.7495 6.36305C37.7046 5.35273 37.6598 4.34242 37.619 3.3321C37.5782 2.36286 37.5456 1.38951 37.5089 0.420261C37.5048 0.354549 37.513 0.288838 37.5171 0.223126C37.5212 0.177949 37.5579 0.157415 37.5905 0.140987C37.6149 0.132773 37.6435 0.132773 37.6679 0.132773C38.3571 0.104024 39.0462 0.0752752 39.7394 0.0465264C39.8454 0.0424194 39.9473 0.0424194 40.0533 0.0424194C40.1267 0.0424194 40.1675 0.0875961 40.1716 0.165629C40.2001 0.769353 40.2246 1.37308 40.249 1.9768C40.2817 2.71195 40.3102 3.4471 40.3388 4.18225C40.3306 4.17814 40.3306 4.17814 40.3265 4.18225Z" fill="#19243B"/>
<path d="M59.2996 96.4289C59.2425 96.3755 59.214 96.3016 59.1813 96.2318C58.9204 95.6322 58.6553 95.0325 58.3944 94.4329C58.3617 94.3631 58.3291 94.2892 58.2924 94.2194C58.2802 94.1947 58.2149 94.166 58.1905 94.1783C58.0845 94.2235 57.9744 94.2686 57.8684 94.3138C57.7501 94.3672 57.6319 94.4206 57.5095 94.4658C57.4851 94.474 57.4361 94.4452 57.4117 94.4206C57.3872 94.3918 57.379 94.3508 57.3627 94.3138C57.0936 93.7019 56.8245 93.0899 56.5554 92.478C56.5391 92.441 56.5268 92.4041 56.5228 92.3671C56.5187 92.3425 56.5309 92.3096 56.5472 92.2973C56.6002 92.2603 56.6573 92.2316 56.7185 92.2069C57.6115 91.8086 58.5045 91.4102 59.3974 91.0118C59.4341 90.9954 59.4668 90.9789 59.5035 90.9625C59.5483 90.942 59.6217 90.9666 59.6421 91.0036C59.6747 91.0734 59.7073 91.1473 59.7359 91.2172C60.3067 92.5108 60.8735 93.8087 61.4444 95.1024C61.4852 95.1968 61.5219 95.2954 61.5586 95.3898C61.5422 95.4186 61.53 95.4432 61.5137 95.4638C61.4974 95.4802 61.4729 95.4966 61.4485 95.5089C60.7838 95.8046 60.1151 96.1045 59.4464 96.396C59.4015 96.4207 59.3567 96.4494 59.2996 96.4289Z" fill="#19253C"/>
<path d="M21.4761 12.9301C21.2029 13.1149 20.2325 13.6077 19.2579 14.0677C19.2131 14.0882 19.1601 14.1005 19.1193 14.1129C19.0908 14.0882 19.0663 14.0718 19.0541 14.0513C18.3935 12.7288 17.7533 11.3982 17.105 10.0634C17.1376 10.0305 17.158 9.99357 17.1865 9.97714C17.3496 9.8909 17.5127 9.81286 17.6758 9.73072C18.2141 9.46377 18.7482 9.19682 19.2865 8.93397C19.3313 8.90933 19.3803 8.8929 19.4292 8.87647C19.4496 8.87237 19.4904 8.88058 19.4985 8.89701C19.5597 8.99558 19.6168 9.09825 19.6657 9.20503C20.1917 10.2852 20.7218 11.3694 21.2478 12.4536C21.3171 12.6056 21.3905 12.7576 21.4761 12.9301Z" fill="#1A253C"/>
<path d="M24.8723 1.90283C24.9335 1.92747 24.962 1.96444 24.9784 2.01783C25.1007 2.40388 25.223 2.79404 25.3453 3.1801C25.5492 3.829 25.7531 4.4779 25.961 5.13091C25.9733 5.16787 25.9855 5.20484 25.9977 5.2418C26.01 5.28698 25.9733 5.35269 25.9284 5.36912C25.7042 5.44304 25.4799 5.51286 25.2597 5.58268C24.8886 5.70178 24.5176 5.82499 24.1465 5.94409C24.1017 5.95641 24.0283 5.92356 24.016 5.88249C23.9671 5.73464 23.9223 5.58268 23.8733 5.43483C23.6654 4.7736 23.4533 4.11238 23.2454 3.44705C23.1883 3.26224 23.1883 3.24992 23.3188 3.14314C23.5716 2.93779 23.8285 2.73244 24.0813 2.52709C24.3056 2.34638 24.5298 2.16568 24.7541 1.98497C24.7908 1.95212 24.8356 1.92747 24.8723 1.90283Z" fill="#1B263D"/>
<path d="M27.3885 1.11432C27.4171 1.19646 27.4538 1.2786 27.4823 1.36484C27.7922 2.3382 28.098 3.31566 28.4079 4.28901C28.4242 4.33829 28.4365 4.39168 28.4487 4.44097C28.465 4.50668 28.4283 4.57239 28.359 4.59292C27.7759 4.78184 27.1928 4.96666 26.6097 5.15558C26.5567 5.17201 26.4996 5.14736 26.4792 5.09808C26.4548 5.03648 26.4303 4.97487 26.4099 4.91327C26.1816 4.19044 25.9491 3.46351 25.7208 2.74068C25.6963 2.66675 25.68 2.58872 25.6678 2.51069C25.6637 2.48605 25.6759 2.4573 25.6882 2.43676C25.7126 2.40391 25.7412 2.37927 25.7697 2.35462C26.2468 1.96857 26.7239 1.58251 27.201 1.19646C27.254 1.15539 27.307 1.11432 27.3885 1.11432Z" fill="#1B263D"/>
<path d="M54.8957 95.743C54.8713 95.7307 54.8427 95.7266 54.8305 95.7102C54.8101 95.6773 54.7938 95.6404 54.7816 95.6034C54.541 94.8436 54.3004 94.0797 54.0598 93.3199C54.0354 93.246 54.0517 93.1926 54.1088 93.1474C54.3738 92.9339 54.6348 92.7203 54.8998 92.5067C55.1241 92.326 55.3483 92.1494 55.5726 91.9687C55.6175 91.9359 55.6786 91.9564 55.699 92.0057C55.7112 92.0427 55.7276 92.0796 55.7398 92.1166C56.0415 93.0776 56.3473 94.0386 56.6491 94.9997C56.6613 95.0366 56.6654 95.0777 56.6654 95.1147C56.6654 95.1393 56.6532 95.1722 56.6369 95.1804C56.5798 95.2091 56.5186 95.2338 56.4574 95.2543C55.9641 95.4145 55.4666 95.5705 54.9691 95.7307C54.9487 95.7389 54.9202 95.7389 54.8957 95.743Z" fill="#1B263D"/>
<path d="M53.3707 92.6915C53.4237 92.8476 53.4808 93.0037 53.5297 93.168C53.8029 94.0674 54.1006 94.9586 54.3616 95.8498C54.3126 95.9443 54.2392 95.9648 54.1617 95.9894C53.8519 96.088 53.542 96.1866 53.2361 96.2851C53.0486 96.3426 52.8651 96.4042 52.6775 96.4617C52.5633 96.4987 52.5022 96.4658 52.4655 96.3591C52.3635 96.0346 52.2616 95.7102 52.1597 95.3857C52.021 94.9504 51.8865 94.515 51.7519 94.0756C51.7274 93.9935 51.7438 93.9236 51.8131 93.8661C52.282 93.4924 52.7468 93.1146 53.2117 92.7367C53.2606 92.7039 53.3055 92.6874 53.3707 92.6915Z" fill="#1B263D"/>
<path d="M3.71382 64.5342C3.66082 64.489 3.64043 64.4274 3.62004 64.3658C3.44471 63.7908 3.25714 63.2158 3.08996 62.6368C2.78414 61.5772 2.53541 60.5052 2.32745 59.421C2.19289 58.7105 2.06649 58 1.98086 57.2854C1.91562 56.7268 1.84222 56.1642 1.77698 55.6056C1.74028 55.2647 1.71582 54.9239 1.69135 54.583C1.60572 53.2318 1.56495 51.8806 1.61796 50.5253C1.64242 49.8805 1.65873 49.2398 1.72805 48.5991C1.7729 48.1925 1.79329 47.7859 1.83815 47.3835C1.89523 46.8865 1.96455 46.3937 2.03387 45.9008C2.10319 45.3916 2.19289 44.8905 2.28668 44.3854C2.4824 43.3011 2.73113 42.2251 3.02472 41.1655C4.32138 36.4753 6.39278 32.1589 9.27562 28.2532C14.0912 21.7272 20.3013 17.0863 27.9019 14.3429C29.4962 13.7679 31.1273 13.312 32.7868 12.9629C33.5901 12.7946 34.3975 12.6426 35.2089 12.5235C35.9836 12.4085 36.7584 12.3223 37.5372 12.2524C39.0867 12.1087 40.6361 12.084 42.1856 12.1169C42.9033 12.1333 43.6168 12.1744 44.3304 12.2442C44.7056 12.2812 45.0848 12.3099 45.4599 12.351C45.9125 12.4044 46.3651 12.4578 46.8177 12.5276C47.36 12.6138 47.8983 12.7124 48.4324 12.811C49.6231 13.0328 50.7974 13.3244 51.9636 13.6611C56.1553 14.8809 60.0413 16.7537 63.601 19.2918C69.6847 23.6246 74.2189 29.2389 77.1915 36.1304C78.1497 38.3522 78.8796 40.648 79.4137 43.0054C79.6176 43.9008 79.7889 44.8043 79.9153 45.7119C79.9805 46.1924 80.058 46.673 80.1151 47.1535C80.1599 47.519 80.1926 47.8845 80.2211 48.25C80.266 48.8004 80.2986 49.3507 80.3394 49.901C80.3394 49.9257 80.3434 49.9544 80.3434 49.9791C80.3883 51.2646 80.4046 52.5541 80.3271 53.8396C80.323 53.93 80.3149 54.0244 80.3108 54.1148C80.2863 54.7432 80.2211 55.3715 80.1599 55.9999C80.0906 56.7063 79.9968 57.4086 79.8867 58.1109C79.7236 59.1623 79.5157 60.2054 79.2629 61.2363C78.6635 63.6881 77.848 66.0661 76.8 68.3578C74.4921 73.4011 71.2749 77.7709 67.1607 81.4631C63.4827 84.7651 59.3318 87.2827 54.7119 89.0199C53.0034 89.6647 51.2541 90.1781 49.4722 90.5724C48.7097 90.7408 47.9431 90.8886 47.1684 91.0118C46.4752 91.1227 45.7779 91.2213 45.0766 91.2829C44.6607 91.3157 44.2448 91.3609 43.8329 91.402C43.7922 91.4061 43.7555 91.4102 43.7147 91.4102C42.414 91.4841 41.1091 91.5375 39.8043 91.4841C39.1519 91.4554 38.4995 91.4431 37.8512 91.3691C37.4516 91.3239 37.0438 91.3075 36.6442 91.2624C36.1508 91.2049 35.6615 91.135 35.1722 91.0652C34.6707 90.9954 34.1691 90.905 33.6676 90.8106C32.5544 90.6011 31.4494 90.3424 30.3607 90.0344C25.8346 88.7612 21.6714 86.7324 17.8752 83.9478C12.3501 79.886 8.1339 74.7318 5.23475 68.4851C5.16544 68.3331 5.07165 68.1853 5.05126 68.0128C5.14097 68.0333 5.2266 68.058 5.31631 68.0662C5.44679 68.0785 5.57727 68.0826 5.70775 68.0867C6.95956 68.1237 8.21137 68.0949 9.45911 68.0703C9.52435 68.0703 9.58959 68.0621 9.65483 68.058C9.83832 68.0456 10.0177 68.0292 10.2012 68.021C10.5152 68.0087 10.8251 68.0046 11.1391 67.9964C11.2288 67.9922 11.3226 67.9964 11.4123 67.984C11.6855 67.9389 11.9587 67.943 12.2318 67.9347C12.505 67.9265 12.7823 67.9348 13.0514 67.906C13.5856 67.8485 14.1198 67.8567 14.6539 67.8362C14.7436 67.8321 14.8374 67.8362 14.9271 67.8239C15.184 67.7828 15.445 67.7869 15.7059 67.7787C16.0036 67.7705 16.3053 67.7664 16.603 67.7582C16.7212 67.754 16.8354 67.7458 16.9537 67.7417C17.1086 67.7335 17.2636 67.7171 17.4226 67.713C17.9975 67.7007 18.5684 67.6924 19.1433 67.6801C19.5348 67.6719 19.9221 67.639 20.3136 67.6349C21.3167 67.6226 22.3197 67.6226 23.3228 67.6144C23.91 67.6103 24.4972 67.6103 25.0843 67.598C25.4105 67.5939 25.7327 67.5651 26.0589 67.5528C26.487 67.5405 26.9192 67.5323 27.3474 67.5241C27.4534 67.5199 27.5553 67.5282 27.6613 67.5117C27.9712 67.4666 28.2852 67.4707 28.5992 67.4583C28.8601 67.4501 29.1211 67.4583 29.3821 67.4296C29.692 67.3967 30.0059 67.3885 30.3199 67.3762C30.5401 67.368 30.7644 67.3762 30.9846 67.3475C31.2455 67.3146 31.5024 67.3105 31.7634 67.3023C32.061 67.29 32.3628 67.2858 32.6604 67.2735C32.7991 67.4091 32.9418 67.5446 33.0804 67.6842C35.6737 70.3168 38.3812 72.8179 41.2192 75.1794C41.9124 75.7585 42.6138 76.3253 43.3436 76.851C43.5434 76.9947 43.7514 77.1303 43.9594 77.2658C44.0246 77.3069 44.098 77.3356 44.1714 77.3644C44.1795 77.3685 44.1959 77.3644 44.204 77.3561C44.2325 77.3438 44.2448 77.3192 44.2326 77.2904C44.1918 77.2083 44.1551 77.1262 44.1102 77.0481C43.4823 75.9433 42.8421 74.8468 42.2223 73.7379C41.8268 73.0315 41.4517 72.3087 41.0724 71.59C41.0072 71.4626 40.9542 71.3271 40.8971 71.1957C40.9175 71.1793 40.9338 71.1628 40.9542 71.1464C41.0602 71.1752 41.1214 71.2655 41.1988 71.3353C41.9287 72.0089 42.6831 72.6537 43.4578 73.282C45.4069 74.8632 47.4334 76.3376 49.5211 77.7299C50.3448 78.2802 51.1766 78.8182 52.0411 79.3111C52.2898 79.4507 52.5467 79.5821 52.8036 79.7094C52.8851 79.7505 52.9748 79.771 53.0605 79.7916C53.0768 79.7957 53.1135 79.7751 53.1216 79.7587C53.1339 79.7423 53.1298 79.7094 53.1176 79.6889C53.1012 79.6519 53.0768 79.6232 53.0523 79.5903C52.6568 79.0646 52.3469 78.4897 52.0696 77.8942C51.7597 77.2288 51.5028 76.543 51.2663 75.8489C50.7403 74.2965 50.3407 72.707 50.0349 71.0971C49.9778 70.8014 49.9167 70.5057 49.9085 70.2018C49.9085 70.1566 49.9371 70.132 49.9615 70.0991L49.9574 70.1114C50.1939 70.518 50.4549 70.9123 50.7403 71.286C50.8586 71.4421 50.9809 71.5982 51.1032 71.7501C51.7393 72.5469 52.4162 73.3149 53.1012 74.0665C54.5039 75.6025 55.9596 77.0851 57.4602 78.5266C58.0636 79.1057 58.6834 79.6684 59.2991 80.2351C59.6743 80.5801 60.0616 80.9087 60.4735 81.2126C60.5999 81.307 60.7304 81.3933 60.8649 81.4713C60.9057 81.496 60.9628 81.5001 61.0117 81.5083C61.0484 81.5165 61.0973 81.4713 61.0892 81.4426C61.0362 81.2824 60.9873 81.1181 60.9302 80.958C59.7599 77.734 58.6794 74.4772 57.6885 71.1916C57.0891 69.212 56.4979 67.2283 55.9066 65.2488C55.8903 65.1995 55.8944 65.1461 55.8862 65.0927C56.1716 65.0599 56.4571 65.027 56.7384 64.9859C57.138 64.9326 57.5376 64.8751 57.9413 64.8463C58.0188 64.8422 58.0963 64.834 58.1737 64.8217C58.5081 64.7806 58.8465 64.7395 59.1809 64.7026C59.503 64.6656 59.8292 64.6369 60.1514 64.5999C60.3838 64.5752 60.6162 64.5424 60.8486 64.5095C61.1463 64.4685 61.4399 64.4274 61.7375 64.3863C62.0229 64.3494 62.3084 64.3206 62.5897 64.2795C63.1932 64.1892 63.8008 64.0947 64.4042 63.9962C65.0852 63.8853 65.7662 63.7744 66.443 63.6471C67.2341 63.4951 68.0251 63.3267 68.8162 63.1666C69.3136 63.068 69.8111 62.9694 70.3126 62.8832C70.8264 62.7928 71.3402 62.7107 71.854 62.6244C72.278 62.5546 72.7021 62.4807 73.1261 62.4191C73.591 62.3534 74.0558 62.3 74.5207 62.2302C75.0997 62.1439 75.6787 62.0536 76.2496 61.9221C76.7062 61.8154 77.1589 61.6963 77.6074 61.5525C77.6319 61.5443 77.6563 61.5361 77.6808 61.5279C77.7338 61.5073 77.7623 61.4704 77.7379 61.4457C77.7216 61.4293 77.7012 61.4047 77.6808 61.4047C77.5136 61.3882 77.3424 61.38 77.1752 61.3595C76.8123 61.3184 76.4534 61.2691 76.0905 61.2363C75.6746 61.1952 75.2587 61.1665 74.8469 61.1295C74.7939 61.1254 74.7449 61.1172 74.6919 61.1131C74.537 61.0966 74.382 61.0761 74.2271 61.072C73.8642 61.0638 73.4972 61.0679 73.1343 61.0679C72.9794 61.0679 72.8203 61.0679 72.6654 61.0884C72.433 61.1254 72.1965 61.1295 71.964 61.1459C71.8743 61.15 71.7806 61.1582 71.6909 61.1665C71.3279 61.2075 70.965 61.2486 70.6062 61.2897C70.2841 61.3266 69.9579 61.3554 69.6358 61.3923C69.4033 61.417 69.1709 61.4498 68.9385 61.4786C68.6286 61.5197 68.3187 61.5648 68.0088 61.6059C67.7111 61.6429 67.4135 61.6757 67.1158 61.7127C66.9079 61.7373 66.704 61.7702 66.496 61.7989C66.1984 61.84 65.9048 61.8852 65.6071 61.9221C65.3217 61.9591 65.0403 61.992 64.7549 62.0248C64.5347 62.0536 64.3145 62.0823 64.0984 62.1111C63.8008 62.1521 63.5072 62.1932 63.2095 62.2384C63.0668 62.2589 62.9282 62.2795 62.7855 62.2959C62.6835 62.3082 62.5775 62.3123 62.4756 62.3164C62.4226 62.3205 62.3859 62.2548 62.4144 62.2014C62.4837 62.0741 62.553 61.9468 62.6305 61.8277C63.0831 61.1377 63.2992 60.9118 63.9965 60.4477C64.3675 60.2013 64.7631 59.996 65.1627 59.8071C65.7621 59.5196 66.3656 59.2403 66.9731 58.9651C67.2585 58.8337 67.5317 58.6817 67.7886 58.501C68.1189 58.2669 68.4533 58.0369 68.7754 57.7946C69.3748 57.347 69.9334 56.8582 70.4472 56.312C70.6918 56.0533 70.908 55.7781 71.0955 55.4742C71.2709 55.1908 71.3891 54.8869 71.4299 54.5583C71.434 54.5337 71.4258 54.5091 71.4177 54.4803C71.4136 54.468 71.4054 54.4516 71.3973 54.4475C71.3728 54.4392 71.3443 54.4269 71.3279 54.4392C71.2627 54.4844 71.2015 54.5337 71.1445 54.5871C70.8346 54.8664 70.5247 55.1497 70.2148 55.429C69.7825 55.8151 69.3055 56.1313 68.7632 56.3367C68.4084 56.4681 68.0659 56.6283 67.7152 56.772C66.4104 57.3059 65.1178 57.8603 63.7885 58.3244C62.8711 58.6448 62.0882 59.1746 61.4317 59.8933C61.1422 60.2136 60.869 60.5463 60.608 60.8954C60.237 61.3882 59.8985 61.9016 59.5683 62.4191C59.5071 62.5177 59.4541 62.6244 59.3521 62.7148C59.1034 62.7435 58.8465 62.7764 58.5856 62.8051C58.3124 62.838 58.0433 62.8626 57.7701 62.8996C57.3297 62.9612 56.8934 63.0146 56.4489 63.0475C56.453 63.0228 56.4489 62.9941 56.4571 62.9694C56.5794 62.6203 56.6202 62.2589 56.6039 61.8852C56.5957 61.688 56.6039 61.4909 56.5998 61.2938C56.5998 61.109 56.612 60.9283 56.5386 60.7517C56.5142 60.6942 56.5264 60.6202 56.5223 60.5586C56.5182 60.4929 56.5264 60.4231 56.506 60.3615C56.4122 60.0206 56.3715 59.6715 56.2858 59.3265C56.1431 58.7557 55.9922 58.1889 55.8128 57.6263C55.6823 57.2156 55.5356 56.809 55.3847 56.4065C55.2787 56.1231 55.1808 55.8397 55.0748 55.5604C55.0095 55.388 54.9402 55.2196 54.8668 55.0512C54.7527 54.7883 54.6181 54.5296 54.5202 54.2585C54.3734 53.8519 54.1369 53.4823 54.0024 53.0716C53.5824 52.2584 53.2073 51.4206 52.7547 50.6198C52.5182 50.2008 52.2857 49.7737 52.0452 49.3548C51.8617 49.0345 51.6456 48.7429 51.4539 48.4307C51.0543 47.9502 50.72 47.4163 50.3122 46.9399C50.1246 46.7222 49.9697 46.4799 49.7903 46.2582C49.6761 46.1185 49.5456 45.983 49.4478 45.831C49.3132 45.6216 49.1134 45.4614 48.9951 45.2396C48.7953 45.0507 48.673 44.7961 48.461 44.6154C48.4324 44.5907 48.408 44.5538 48.3917 44.5209C48.3468 44.4223 48.2693 44.3525 48.1959 44.2745C48.1429 44.217 48.0736 44.1677 48.0369 44.102C47.9309 43.9131 47.7719 43.7775 47.6292 43.6256C47.5761 43.5681 47.5109 43.5188 47.4742 43.449C47.3845 43.2847 47.2459 43.1656 47.1195 43.0342C46.9849 42.8904 46.8259 42.7672 46.7158 42.6071C46.5812 42.4099 46.414 42.2456 46.2509 42.0814C46.0185 41.8514 45.7983 41.6132 45.5333 41.416C45.305 41.2477 45.1378 41.0012 44.885 40.8534C44.6892 40.6357 44.4324 40.5002 44.1918 40.3482C43.9145 40.1716 43.6128 40.0525 43.2702 40.0813C43.2172 40.0854 43.1642 40.0813 43.1153 40.0772C43.152 40.0073 43.1887 39.9375 43.2295 39.8718C44.4854 37.9128 45.1011 35.7607 45.1541 33.4362C45.1622 33.0542 45.1215 32.6764 45.097 32.2945C45.0766 31.9536 45.0195 31.6168 44.9665 31.28C44.8727 30.7092 44.7178 30.1547 44.5588 29.6003C44.4609 29.2594 44.3304 28.9308 44.1673 28.6187C43.9227 28.1464 43.6087 27.7316 43.2009 27.3907C42.9889 27.2141 42.7728 27.0499 42.5526 26.8815C42.3242 26.709 42.2794 26.709 42.467 26.4626C42.5771 26.3188 42.6545 26.1463 42.7239 25.9779C42.9848 25.3619 43.1887 24.7253 43.3355 24.0723C43.364 23.945 43.3763 23.8136 43.3681 23.6821C43.364 23.6287 43.2988 23.5918 43.2539 23.6164C43.2213 23.637 43.1805 23.6493 43.1561 23.6739C43.0623 23.7643 42.9685 23.8546 42.8788 23.9491C42.8258 24.0066 42.7809 24.0682 42.7279 24.1298C42.6872 24.1791 42.6464 24.1955 42.6341 24.1709C42.6219 24.1503 42.6056 24.1298 42.6056 24.1093C42.6097 23.752 42.5771 23.4029 42.5077 23.0538C42.4588 22.8073 42.4058 22.565 42.312 22.335C42.2835 22.2611 42.2386 22.1954 42.1978 22.1297C42.1734 22.0886 42.0918 22.0435 42.0714 22.0599C42.0388 22.0845 42.0062 22.1092 41.9899 22.142C41.9573 22.2118 41.9287 22.2858 41.9083 22.3638C41.8472 22.6061 41.7901 22.8484 41.733 23.0907C41.627 23.522 41.5128 23.9532 41.3538 24.3721C41.2519 24.6432 41.1295 24.9019 40.9787 25.1483C40.8604 25.3372 40.7177 25.5097 40.5464 25.6494C40.2447 25.8917 39.9103 25.9903 39.523 25.9163C39.368 25.8876 39.2212 25.8424 39.0744 25.7808C38.4832 25.5426 37.8634 25.4728 37.2355 25.5221C36.6238 25.5672 36.0244 25.6822 35.4332 25.8506C34.479 26.1258 33.5656 26.4995 32.6808 26.9513C32.5993 26.9924 32.5259 27.0499 32.4239 27.054C32.3709 27.0334 32.3098 27.0129 32.2486 26.9882C31.4657 26.6638 30.6583 26.4133 29.8224 26.2531C29.0518 26.1052 28.2771 26.0231 27.4901 26.1135C27.1394 26.1545 26.7969 26.2244 26.4625 26.3435C26.3402 26.3886 26.222 26.442 26.0956 26.479C25.8835 26.5447 25.6674 26.5981 25.4431 26.5652C25.1659 26.5201 24.9253 26.4009 24.7173 26.2038C24.5461 26.0395 24.4115 25.8465 24.2933 25.6412C24.1261 25.3414 24.0038 25.0251 23.8978 24.7007C23.7673 24.3023 23.6735 23.8916 23.5756 23.485C23.5267 23.2673 23.4655 23.0538 23.4084 22.8402C23.3962 22.7909 23.3554 22.7499 23.3228 22.7129C23.3106 22.7006 23.2698 22.6965 23.2535 22.7047C23.2127 22.7334 23.1638 22.7663 23.1393 22.8073C23.0496 22.9552 22.9966 23.1154 22.9599 23.2838C22.8539 23.7314 22.7805 24.1832 22.7887 24.6473C22.7887 24.6924 22.8172 24.7499 22.7438 24.791C22.7193 24.7705 22.6867 24.7541 22.6623 24.7253C22.5603 24.6062 22.4625 24.483 22.3564 24.368C22.3116 24.3228 22.2545 24.29 22.2015 24.253C22.1607 24.2243 22.0914 24.2653 22.0832 24.3146C22.0588 24.5117 22.0873 24.7089 22.1281 24.9019C22.226 25.3783 22.3564 25.8465 22.5114 26.3024C22.5481 26.4133 22.597 26.5242 22.6378 26.6309C22.7234 26.8527 22.8213 27.0663 22.9762 27.247C23.0211 27.3004 23.0088 27.3702 22.9558 27.4236C22.9273 27.4523 22.9028 27.4852 22.8702 27.5057C22.6745 27.6454 22.5318 27.8343 22.4013 28.0273C22.2993 28.1793 22.1933 28.3312 22.1036 28.4914C21.4064 29.7153 20.9619 31.0131 20.8885 32.4382C20.8518 33.1117 20.8763 33.7771 20.9374 34.4465C21.0027 35.1529 21.1332 35.8511 21.3126 36.537C21.5858 37.5678 21.9568 38.5576 22.4665 39.494C22.8824 40.2579 23.3717 40.9684 23.963 41.605C24.2117 41.8719 24.3177 42.1799 24.2607 42.5413C24.1791 43.0342 24.0894 43.5229 24.0078 44.0157C23.9018 44.6482 23.7999 45.2848 23.7265 45.9214C23.6939 46.2089 23.6572 46.4964 23.6286 46.7838C23.5838 47.2274 23.5348 47.671 23.5104 48.1186C23.4574 49.1412 23.4533 50.168 23.5063 51.1906C23.5267 51.5438 23.5552 51.897 23.6001 52.2502C23.6735 52.8375 23.7632 53.4207 23.8855 53.9998C24.0976 55.0019 24.3993 55.9794 24.7948 56.924C25.174 57.8193 25.6593 58.6571 26.1893 59.4703C26.9926 60.6983 27.8856 61.8646 28.8234 62.99C29.2271 63.4746 29.639 63.9469 30.0467 64.4233C30.112 64.5013 30.2017 64.567 30.2139 64.682C30.112 64.6779 30.0059 64.6656 29.904 64.6656C27.6083 64.6779 25.3167 64.6902 23.0211 64.6985C21.0638 64.7026 19.1107 64.7026 17.1535 64.6902C15.2003 64.6779 13.2431 64.6943 11.2899 64.6286C9.75269 64.5794 8.21545 64.6163 6.67821 64.5465C5.78115 64.5054 4.88001 64.5136 3.97887 64.5013C3.89731 64.5177 3.80353 64.5301 3.71382 64.5342Z" fill="white"/>
<path d="M3.71382 64.5342C3.80353 64.5301 3.89324 64.5177 3.98702 64.5177C4.88816 64.5301 5.78523 64.5218 6.68637 64.5629C8.22361 64.6327 9.76085 64.5917 11.2981 64.645C13.2512 64.7108 15.2085 64.6943 17.1616 64.7067C19.1189 64.719 21.072 64.719 23.0292 64.7149C25.3249 64.7108 27.6165 64.6943 29.9122 64.682C30.0141 64.682 30.1201 64.6943 30.222 64.6984C30.2547 64.7149 30.2954 64.7231 30.324 64.7477C30.4504 64.8791 30.5768 65.0147 30.6991 65.1502C31.2863 65.7827 31.8735 66.4151 32.4606 67.0517C32.5299 67.1257 32.6278 67.179 32.6686 67.2776C32.3709 67.2858 32.0692 67.294 31.7715 67.3064C31.5106 67.3146 31.2496 67.3228 30.9927 67.3515C30.7725 67.3803 30.5523 67.3721 30.3281 67.3803C30.0141 67.3926 29.7042 67.3967 29.3902 67.4337C29.1333 67.4624 28.8683 67.4542 28.6073 67.4624C28.2934 67.4747 27.9835 67.4665 27.6695 67.5158C27.5676 67.5322 27.4615 67.5281 27.3555 67.5281C26.9274 67.5364 26.4952 67.5446 26.067 67.5569C25.7408 67.5692 25.4187 67.5939 25.0925 67.6021C24.5053 67.6144 23.9181 67.6144 23.331 67.6185C22.3279 67.6267 21.3248 67.6267 20.3217 67.639C19.9303 67.6431 19.5429 67.6719 19.1515 67.6842C18.5765 67.7006 18.0057 67.7047 17.4307 67.7171C17.2758 67.7212 17.1208 67.7376 16.9618 67.7458C16.8436 67.754 16.7294 67.7622 16.6112 67.7622C16.3135 67.7705 16.0117 67.7746 15.7141 67.7828C15.4531 67.791 15.1922 67.7869 14.9353 67.8279C14.8456 67.8403 14.7518 67.8362 14.6621 67.8403C14.1279 67.8608 13.5938 67.8526 13.0596 67.9101C12.7864 67.9388 12.5132 67.9265 12.24 67.9388C11.9668 67.947 11.6936 67.9429 11.4204 67.9881C11.3307 68.0004 11.2369 68.0004 11.1472 68.0004C10.8332 68.0087 10.5234 68.0128 10.2094 68.0251C10.0259 68.0333 9.84648 68.0497 9.66299 68.062C9.59775 68.0662 9.53251 68.0744 9.46726 68.0744C8.21545 68.099 6.96364 68.1278 5.71591 68.0908C5.58543 68.0867 5.45494 68.0867 5.32446 68.0703C5.23476 68.062 5.14505 68.0333 5.05942 68.0169C4.99418 67.984 4.97787 67.9183 4.9534 67.8608C4.61497 67.101 4.30507 66.3248 4.01964 65.5445C3.92586 65.2857 3.83615 65.0311 3.74237 64.7724C3.72198 64.6902 3.69751 64.6163 3.71382 64.5342Z" fill="#919091"/>
<path d="M32.669 67.2735C32.6283 67.1708 32.5304 67.1216 32.4611 67.0476C31.8739 66.411 31.2868 65.7827 30.6996 65.1461C30.5732 65.0106 30.4509 64.875 30.3244 64.7436C30.3 64.719 30.2592 64.7108 30.2225 64.6943C30.2103 64.5793 30.1206 64.5136 30.0553 64.4356C29.6476 63.9592 29.2317 63.4869 28.8321 63.0023C27.8942 61.8728 27.0012 60.7106 26.198 59.4826C25.6679 58.6694 25.1826 57.8316 24.8034 56.9363C24.4038 55.9917 24.1062 55.0183 23.8941 54.0121C23.7718 53.433 23.6821 52.8498 23.6087 52.2625C23.5639 51.9093 23.5353 51.5561 23.5149 51.2029C23.4619 50.1803 23.466 49.1536 23.519 48.1309C23.5435 47.6874 23.5924 47.2397 23.6372 46.7962C23.6658 46.5087 23.7025 46.2212 23.7351 45.9337C23.8085 45.293 23.9145 44.6605 24.0165 44.0281C24.098 43.5352 24.1877 43.0465 24.2693 42.5536C24.3304 42.1922 24.2203 41.8842 23.9716 41.6173C23.3804 40.9807 22.8911 40.2702 22.4751 39.5063C21.9654 38.5699 21.5944 37.5801 21.3212 36.5493C21.1418 35.8634 21.0113 35.1652 20.9461 34.4588C20.8849 33.7935 20.8604 33.124 20.8971 32.4505C20.9705 31.0295 21.415 29.7276 22.1122 28.5037C22.2019 28.3435 22.308 28.1916 22.4099 28.0396C22.5404 27.8425 22.6831 27.6536 22.8788 27.518C22.9114 27.4975 22.9359 27.4646 22.9644 27.4359C23.0175 27.3825 23.0297 27.3127 22.9848 27.2593C22.8299 27.0786 22.732 26.865 22.6464 26.6432C22.6015 26.5324 22.5567 26.4256 22.52 26.3147C22.365 25.8547 22.2305 25.3865 22.1367 24.9142C22.0959 24.7212 22.0674 24.5282 22.0919 24.3269C22.1 24.2776 22.1693 24.2366 22.2101 24.2653C22.2631 24.3023 22.3243 24.3351 22.365 24.3803C22.4711 24.4953 22.5689 24.6185 22.6709 24.7376C22.6953 24.7623 22.728 24.7828 22.7524 24.8033C22.8217 24.7664 22.7973 24.7048 22.7973 24.6596C22.7932 24.1955 22.8625 23.7437 22.9685 23.2961C23.0093 23.1318 23.0582 22.9675 23.1479 22.8197C23.1724 22.7786 23.2213 22.7457 23.2621 22.717C23.2784 22.7047 23.3192 22.7088 23.3314 22.7252C23.3641 22.7622 23.4007 22.8073 23.4171 22.8525C23.4782 23.0661 23.5353 23.2837 23.5842 23.4973C23.678 23.9039 23.7759 24.3146 23.9064 24.713C24.0124 25.0374 24.1347 25.3537 24.3019 25.6535C24.4161 25.8588 24.5506 26.0518 24.726 26.2161C24.9298 26.4133 25.1704 26.5324 25.4518 26.5775C25.676 26.6145 25.8921 26.557 26.1042 26.4913C26.2265 26.4543 26.3488 26.4009 26.4712 26.3558C26.8014 26.2325 27.148 26.1668 27.4987 26.1258C28.2857 26.0313 29.0604 26.1176 29.8311 26.2654C30.667 26.4256 31.4702 26.6761 32.2572 27.0006C32.3184 27.0252 32.3795 27.0457 32.4325 27.0663C32.5345 27.0622 32.6079 27.0006 32.6894 26.9636C33.5743 26.5118 34.4876 26.1381 35.4418 25.8629C36.033 25.6945 36.6324 25.5795 37.2441 25.5344C37.8761 25.4892 38.4918 25.5549 39.083 25.7931C39.2298 25.8506 39.3766 25.8958 39.5316 25.9286C39.9189 26.0067 40.2533 25.904 40.5551 25.6617C40.7304 25.522 40.869 25.3495 40.9873 25.1606C41.1422 24.9142 41.2605 24.6555 41.3624 24.3844C41.5214 23.9696 41.6356 23.5384 41.7416 23.103C41.8028 22.8607 41.8558 22.6184 41.917 22.3761C41.9373 22.3022 41.9659 22.2241 41.9985 22.1543C42.0148 22.1215 42.0515 22.0968 42.0801 22.0722C42.1004 22.0558 42.1861 22.1009 42.2065 22.142C42.2472 22.2077 42.2921 22.2734 42.3206 22.3474C42.4144 22.5773 42.4674 22.8238 42.5164 23.0661C42.5857 23.4152 42.6183 23.7684 42.6142 24.1216C42.6142 24.1421 42.6305 24.1626 42.6428 24.1832C42.655 24.2078 42.6958 24.1914 42.7365 24.1421C42.7855 24.0805 42.8344 24.0189 42.8874 23.9614C42.9771 23.8669 43.0709 23.7766 43.1647 23.6862C43.1932 23.6616 43.2299 23.6452 43.2626 23.6287C43.3074 23.6041 43.3726 23.641 43.3767 23.6944C43.389 23.8259 43.3767 23.9573 43.3441 24.0846C43.1973 24.7376 42.9934 25.3742 42.7325 25.9902C42.6631 26.1586 42.5857 26.3311 42.4756 26.4749C42.288 26.7213 42.3329 26.7213 42.5612 26.8938C42.7814 27.058 42.9975 27.2264 43.2095 27.403C43.6173 27.7439 43.9313 28.1587 44.1759 28.631C44.339 28.9473 44.4695 29.2717 44.5674 29.6126C44.7264 30.167 44.8813 30.7215 44.9751 31.2923C45.0322 31.6291 45.0852 31.9659 45.1056 32.3068C45.1301 32.6887 45.1708 33.0665 45.1627 33.4485C45.1056 35.773 44.4899 37.9251 43.2381 39.8841C43.1973 39.9498 43.1606 40.0196 43.1239 40.0895C43.0138 40.1264 42.973 40.2291 42.9119 40.3112C42.129 41.3996 41.4521 42.5495 40.8976 43.7693C40.4205 44.8207 40.0413 45.909 39.8252 47.0508C39.711 47.6586 39.6376 48.2706 39.6335 48.8907C39.6294 49.708 39.7151 50.5171 39.8415 51.322C39.9964 52.3118 40.2411 53.2728 40.5673 54.2174C40.9098 55.2113 41.3379 56.1683 41.8843 57.0677C42.1779 57.5523 42.5041 58.0082 42.8793 58.4312C43.1769 58.7639 43.499 59.0678 43.8701 59.3183C44.0862 59.4662 44.3146 59.5853 44.5633 59.6756C44.8243 59.7701 45.0893 59.8194 45.3666 59.807C45.4971 59.8029 45.6235 59.7783 45.7499 59.7413C45.9945 59.6756 46.1576 59.5195 46.2596 59.2896C46.3166 59.1581 46.3533 59.0185 46.3656 58.8706C46.3982 58.4764 46.3819 58.0821 46.3207 57.6919C46.2963 57.5236 46.2596 57.3552 46.2881 57.1868C46.2881 57.1786 46.3044 57.1745 46.3166 57.1745C46.3289 57.1745 46.3452 57.1704 46.3533 57.1786C46.4349 57.2525 46.4675 57.3552 46.5042 57.4496C46.6673 57.8357 46.8182 58.2259 46.9813 58.6119C47.2259 59.191 47.5073 59.7536 47.858 60.2793C48.07 60.5956 48.3065 60.8913 48.5797 61.1582C48.7428 61.3143 48.9141 61.4498 49.1016 61.5689C49.595 61.8852 50.1292 62.0043 50.7082 61.9344C51.1159 61.8852 51.4136 61.6757 51.5849 61.2979C51.6297 61.2034 51.6542 61.1007 51.6827 60.9981C51.7806 60.6079 51.7683 60.2177 51.7194 59.8235C51.6705 59.4456 51.6052 59.0719 51.5482 58.694C51.54 58.6324 51.5522 58.5667 51.5563 58.501C51.5563 58.4928 51.5726 58.4887 51.5849 58.4846C51.5971 58.4805 51.6175 58.4764 51.6216 58.4805C51.6623 58.5298 51.7113 58.5791 51.7357 58.6365C51.8784 58.9897 52.013 59.3429 52.1476 59.7003C52.4371 60.46 52.7266 61.2198 53.0772 61.9509C53.2689 62.3534 53.4809 62.7476 53.7256 63.1173C53.8724 63.3349 54.0314 63.5444 54.2149 63.7333C54.3454 63.8647 54.484 63.9797 54.643 64.0701C54.8918 64.2097 55.1527 64.2672 55.43 64.1727C55.4789 64.1563 55.5319 64.1563 55.5849 64.1481C55.6747 64.4397 55.7603 64.7354 55.85 65.027C55.8581 65.0475 55.8826 65.064 55.8989 65.0845C55.9071 65.1379 55.903 65.1913 55.9193 65.2406C56.5146 67.2242 57.1059 69.2038 57.7012 71.1833C58.692 74.4689 59.7767 77.7216 60.9429 80.9497C60.9999 81.1099 61.0489 81.2742 61.1019 81.4343C61.11 81.4631 61.0611 81.5083 61.0244 81.5001C60.9755 81.4918 60.9184 81.4877 60.8776 81.4631C60.7431 81.381 60.6126 81.2947 60.4862 81.2044C60.0784 80.9004 59.687 80.5719 59.3118 80.2269C58.6961 79.6642 58.0763 79.0975 57.4729 78.5184C55.9723 77.0769 54.5166 75.5942 53.1139 74.0582C52.4248 73.3066 51.752 72.5386 51.1159 71.7419C50.9936 71.5899 50.8713 71.4339 50.753 71.2778C50.4676 70.9041 50.2066 70.5139 49.9701 70.1032C49.9498 70.1032 49.9253 70.1032 49.9049 70.0991C49.9131 70.1073 49.9171 70.1237 49.9253 70.1279C49.9538 70.1402 49.9742 70.1279 49.9742 70.0909C49.9538 70.1237 49.9212 70.1443 49.9212 70.1936C49.9294 70.4975 49.9905 70.7932 50.0476 71.0889C50.3575 72.6988 50.7571 74.2882 51.279 75.8407C51.5155 76.5347 51.7724 77.2206 52.0823 77.8859C52.3596 78.4814 52.6654 79.0564 53.065 79.5821C53.0895 79.615 53.1139 79.6437 53.1302 79.6807C53.1384 79.7012 53.1425 79.7341 53.1343 79.7505C53.1221 79.7669 53.0895 79.7874 53.0732 79.7833C52.9875 79.7628 52.8938 79.7423 52.8163 79.7012C52.5594 79.5739 52.3025 79.4466 52.0538 79.3028C51.1934 78.8141 50.3575 78.272 49.5338 77.7216C47.4461 76.3294 45.4237 74.855 43.4705 73.2738C42.6998 72.6495 41.9455 72.0006 41.2115 71.3271C41.1381 71.2573 41.077 71.1669 40.9669 71.1382C40.9547 71.1053 40.9465 71.0601 40.8976 71.0889C40.8853 71.0971 40.8894 71.1341 40.8894 71.1546C40.8894 71.1669 40.9016 71.1751 40.9098 71.1875C40.9669 71.3189 41.0199 71.4544 41.0851 71.5817C41.4643 72.3004 41.8395 73.0192 42.235 73.7297C42.8548 74.8385 43.495 75.9392 44.1229 77.0399C44.1678 77.1179 44.2045 77.2001 44.2452 77.2822C44.2575 77.3109 44.2452 77.3356 44.2167 77.3479C44.2085 77.352 44.1922 77.3561 44.1841 77.3561C44.1148 77.3233 44.0373 77.2986 43.972 77.2576C43.7641 77.122 43.5561 76.9865 43.3563 76.8428C42.6265 76.313 41.9251 75.7462 41.2319 75.1712C38.3939 72.8097 35.6864 70.3086 33.0931 67.676C32.9504 67.5446 32.8118 67.4131 32.669 67.2735ZM32.9871 30.0069C32.9055 29.9411 32.8199 29.9288 32.7343 30.0027C32.7261 30.011 32.7139 30.0151 32.7057 30.0233C32.6079 29.9206 32.51 29.8138 32.4081 29.7112C31.9514 29.2512 31.4295 28.8857 30.8505 28.6023C30.3408 28.3559 29.8066 28.1916 29.248 28.1135C28.7668 28.0478 28.2897 28.0396 27.8045 28.093C26.6343 28.2203 25.5822 28.631 24.6566 29.3662C23.8493 30.0069 23.2662 30.8159 22.9155 31.7934C22.6464 32.545 22.5567 33.3212 22.6015 34.1179C22.6097 34.2247 22.6219 34.3274 22.626 34.4342C22.6505 34.9763 22.7402 35.5061 22.8747 36.0277C23.2907 37.6499 24.1633 38.9683 25.5048 39.9663C26.1694 40.4591 26.8993 40.8369 27.67 41.1285C28.7872 41.5516 29.9493 41.7815 31.1318 41.9047C31.7394 41.9664 32.3551 41.9951 32.9667 41.9992C34.0024 42.0074 35.0218 41.9006 36.029 41.6748C37.1666 41.416 38.2512 41.0135 39.2706 40.4427C40.1065 39.9704 40.869 39.4036 41.5296 38.7054C42.3614 37.8265 42.9771 36.8203 43.3278 35.6539C43.499 35.0872 43.5928 34.5081 43.6377 33.9126C43.6825 33.3048 43.654 32.701 43.5113 32.1096C43.0546 30.2163 41.9781 28.7994 40.2615 27.8918C39.238 27.3496 38.1371 27.1813 36.9994 27.3455C35.7884 27.518 34.7486 28.056 33.8678 28.9144C33.5335 29.2389 33.2521 29.6167 32.9871 30.0069Z" fill="#16233A"/>
<path d="M55.5808 64.1522C55.5278 64.1604 55.4748 64.1604 55.4259 64.1768C55.1445 64.2713 54.8876 64.2138 54.6389 64.0742C54.4799 63.9838 54.3372 63.8688 54.2108 63.7374C54.0273 63.5485 53.8682 63.3431 53.7214 63.1213C53.4727 62.7517 53.2648 62.3574 53.0731 61.955C52.7224 61.2239 52.4289 60.4641 52.1434 59.7043C52.0089 59.347 51.8702 58.9938 51.7316 58.6406C51.7071 58.5831 51.6582 58.5339 51.6174 58.4846C51.6133 58.4805 51.593 58.4846 51.5807 58.4887C51.5685 58.4928 51.5522 58.501 51.5522 58.5051C51.5481 58.5708 51.5359 58.6365 51.544 58.6981C51.597 59.076 51.6623 59.4497 51.7153 59.8276C51.7683 60.2218 51.7764 60.612 51.6786 61.0021C51.6541 61.1048 51.6256 61.2075 51.5807 61.302C51.4095 61.6798 51.1077 61.8893 50.704 61.9385C50.1291 62.0084 49.5909 61.8893 49.0975 61.573C48.9099 61.4539 48.7346 61.3143 48.5756 61.1623C48.2983 60.8995 48.0618 60.6038 47.8538 60.2834C47.5032 59.7577 47.2218 59.1951 46.9772 58.616C46.8141 58.2299 46.6632 57.8398 46.5001 57.4537C46.4593 57.3593 46.4267 57.2566 46.3492 57.1827C46.3411 57.1745 46.3248 57.1786 46.3125 57.1786C46.3044 57.1786 46.284 57.1868 46.284 57.1909C46.2554 57.3634 46.2921 57.5277 46.3166 57.696C46.3778 58.0862 46.3941 58.4805 46.3614 58.8747C46.3492 59.0226 46.3125 59.1581 46.2554 59.2936C46.1576 59.5195 45.9904 59.6797 45.7457 59.7454C45.6193 59.7783 45.4929 59.8029 45.3624 59.8111C45.0852 59.8234 44.8201 59.7742 44.5592 59.6797C44.3104 59.5893 44.0821 59.4702 43.866 59.3224C43.4949 59.0719 43.1728 58.768 42.8751 58.4353C42.5 58.0123 42.1738 57.5523 41.8802 57.0718C41.3338 56.1723 40.9057 55.2154 40.5632 54.2215C40.237 53.2769 39.9923 52.3118 39.8373 51.3261C39.7109 50.5212 39.6294 49.7121 39.6294 48.8948C39.6294 48.2746 39.7069 47.6627 39.821 47.0549C40.0372 45.9131 40.4123 44.8248 40.8934 43.7734C41.448 42.5536 42.1249 41.4037 42.9078 40.3153C42.9689 40.2332 43.0097 40.1305 43.1198 40.0936C43.1728 40.0936 43.2258 40.1018 43.2747 40.0977C43.6173 40.0689 43.919 40.188 44.1963 40.3646C44.4368 40.5166 44.6937 40.6562 44.8894 40.8698C45.1423 41.0176 45.3094 41.264 45.5378 41.4324C45.8028 41.6296 46.023 41.8678 46.2554 42.0978C46.4226 42.262 46.5857 42.4263 46.7203 42.6235C46.8304 42.7836 46.9894 42.9068 47.124 43.0506C47.2504 43.182 47.389 43.3011 47.4787 43.4654C47.5154 43.5311 47.5806 43.5845 47.6336 43.642C47.7764 43.7939 47.9354 43.9295 48.0414 44.1184C48.0781 44.1841 48.1474 44.2334 48.2004 44.2909C48.2738 44.3648 48.3472 44.4387 48.3962 44.5373C48.4125 44.5702 48.4369 44.6071 48.4655 44.6318C48.6775 44.8125 48.7998 45.0671 48.9996 45.256C49.1179 45.4778 49.3136 45.638 49.4522 45.8474C49.5501 45.9994 49.6765 46.1349 49.7948 46.2745C49.9782 46.4963 50.1332 46.7386 50.3167 46.9563C50.7244 47.4327 51.0588 47.9625 51.4584 48.4471C51.65 48.7593 51.8702 49.0509 52.0496 49.3712C52.2902 49.7901 52.5226 50.2172 52.7591 50.6362C53.2118 51.437 53.5869 52.2707 54.0069 53.088C54.1414 53.4987 54.3779 53.8683 54.5247 54.2749C54.6226 54.546 54.7571 54.8006 54.8713 55.0676C54.9447 55.236 55.014 55.4043 55.0793 55.5768C55.1853 55.8602 55.2832 56.1436 55.3892 56.4229C55.54 56.8254 55.6868 57.2319 55.8173 57.6426C55.9967 58.2012 56.1476 58.7721 56.2903 59.3429C56.3759 59.6838 56.4167 60.037 56.5105 60.3779C56.5268 60.4395 56.5187 60.5093 56.5268 60.575C56.5309 60.6407 56.5227 60.7106 56.5431 60.768C56.6124 60.9446 56.6002 61.1295 56.6043 61.3102C56.6043 61.5073 56.5961 61.7044 56.6084 61.9016C56.6247 62.2712 56.5798 62.6326 56.4616 62.9858C56.4534 63.0105 56.4575 63.0392 56.4534 63.0638C56.4167 63.2158 56.3433 63.3554 56.2658 63.4869C56.1476 63.6881 56.0008 63.8688 55.801 64.0002C55.7195 64.0372 55.6297 64.0659 55.5808 64.1522Z" fill="#E7E6E6"/>
<path d="M55.5806 64.1522C55.6295 64.066 55.7192 64.0372 55.7926 63.9879C55.9924 63.8565 56.1392 63.6799 56.2574 63.4746C56.3349 63.3432 56.4083 63.2035 56.445 63.0516C56.8854 63.0187 57.3258 62.9653 57.7661 62.9037C58.0353 62.8667 58.3085 62.8421 58.5817 62.8092C58.8385 62.7805 59.0995 62.7476 59.3482 62.7189C59.4502 62.6285 59.5032 62.5218 59.5643 62.4232C59.8946 61.9057 60.2371 61.3923 60.6041 60.8995C60.8651 60.5545 61.1342 60.2177 61.4278 59.8974C62.0843 59.1787 62.8672 58.6489 63.7846 58.3285C65.1139 57.8645 66.4106 57.31 67.7113 56.7761C68.062 56.6324 68.4045 56.4722 68.7592 56.3408C69.3056 56.1354 69.7827 55.8233 70.2109 55.4331C70.5208 55.1538 70.8307 54.8705 71.1405 54.5912C71.1976 54.5378 71.2588 54.4885 71.324 54.4433C71.3403 54.4351 71.373 54.4475 71.3934 54.4516C71.4015 54.4557 71.4097 54.4721 71.4137 54.4844C71.4178 54.5091 71.426 54.5378 71.426 54.5624C71.3852 54.8951 71.2669 55.1949 71.0916 55.4783C70.904 55.7822 70.6879 56.0574 70.4433 56.3161C69.9295 56.8623 69.3709 57.3511 68.7715 57.7987C68.4453 58.0411 68.115 58.2752 67.7847 58.5051C67.5278 58.6858 67.2546 58.8378 66.9692 58.9692C66.3657 59.2444 65.7622 59.5237 65.1588 59.8112C64.7592 60.0042 64.3636 60.2054 63.9926 60.4518C63.2953 60.92 63.0792 61.1418 62.6266 61.8318C62.5491 61.9509 62.4798 62.0782 62.4105 62.2055C62.3819 62.2548 62.4186 62.3205 62.4716 62.3205C62.5736 62.3164 62.6796 62.3082 62.7815 62.3C62.9243 62.2836 63.067 62.263 63.2056 62.2425C63.5033 62.2014 63.7969 62.1562 64.0945 62.1152C64.3147 62.0864 64.5349 62.0577 64.751 62.0289C65.0364 61.992 65.3219 61.9632 65.6032 61.9262C65.9009 61.8893 66.1945 61.8441 66.4921 61.803C66.7001 61.7743 66.904 61.7455 67.1119 61.7168C67.4096 61.6798 67.7072 61.647 68.0049 61.61C68.3148 61.5689 68.6247 61.5238 68.9346 61.4827C69.167 61.4539 69.3994 61.4211 69.6318 61.3964C69.954 61.3595 70.2802 61.3307 70.6023 61.2938C70.9652 61.2527 71.3281 61.2116 71.6869 61.1706C71.7766 61.1624 71.8704 61.1541 71.9601 61.15C72.1926 61.1336 72.4291 61.1295 72.6615 61.0925C72.8164 61.0679 72.9714 61.072 73.1304 61.072C73.4933 61.0679 73.8603 61.0679 74.2232 61.0761C74.3781 61.0802 74.5331 61.1007 74.688 61.1172C74.741 61.1213 74.79 61.1295 74.843 61.1336C75.2589 61.1706 75.6748 61.1993 76.0866 61.2404C76.4495 61.2773 76.8124 61.3266 77.1713 61.3636C77.3384 61.3841 77.5097 61.3923 77.6769 61.4088C77.6973 61.4088 77.7177 61.4334 77.734 61.4498C77.7584 61.4704 77.7299 61.5114 77.6769 61.532C77.6524 61.5402 77.6279 61.5484 77.6035 61.5566C77.159 61.7004 76.7023 61.8195 76.2457 61.9262C75.6748 62.0577 75.0958 62.148 74.5168 62.2343C74.0519 62.3041 73.5871 62.3534 73.1222 62.4232C72.6982 62.4848 72.2741 62.5587 71.85 62.6285C71.3363 62.7148 70.8225 62.7928 70.3087 62.8873C69.8072 62.9776 69.3097 63.0721 68.8123 63.1707C68.0212 63.3267 67.2302 63.4992 66.4391 63.6512C65.7622 63.7785 65.0813 63.8894 64.4003 64.0003C63.7969 64.0988 63.1934 64.1933 62.5858 64.2836C62.3045 64.3247 62.019 64.3535 61.7336 64.3904C61.4359 64.4315 61.1424 64.4726 60.8447 64.5136C60.6123 64.5465 60.3799 64.5752 60.1474 64.604C59.8253 64.641 59.4991 64.6697 59.177 64.7067C58.8426 64.7436 58.5042 64.7888 58.1698 64.8258C58.0923 64.834 58.0149 64.8422 57.9374 64.8504C57.5337 64.8792 57.1341 64.9367 56.7345 64.99C56.4491 65.027 56.1677 65.0599 55.8823 65.0968C55.866 65.0763 55.8415 65.0599 55.8334 65.0393C55.7559 64.7395 55.6703 64.4438 55.5806 64.1522Z" fill="#929192"/>
<path d="M32.9867 30.0069C33.2517 29.6167 33.5331 29.2389 33.8715 28.9103C34.7523 28.0519 35.792 27.5139 37.0031 27.3414C38.1448 27.1772 39.2416 27.3496 40.2651 27.8877C41.9777 28.7953 43.0582 30.2163 43.5149 32.1055C43.6576 32.6928 43.6862 33.2965 43.6413 33.9085C43.5965 34.4999 43.5027 35.079 43.3314 35.6498C42.9808 36.8162 42.3651 37.8265 41.5332 38.7013C40.8686 39.3995 40.1102 39.9704 39.2743 40.4386C38.2549 41.0135 37.1702 41.4119 36.0326 41.6707C35.0254 41.9006 34.002 42.0074 32.9704 41.9951C32.3587 41.991 31.743 41.9622 31.1355 41.9006C29.953 41.7774 28.7909 41.5515 27.6736 41.1244C26.9029 40.8328 26.1731 40.455 25.5084 39.9622C24.1669 38.9642 23.2984 37.6458 22.8784 36.0236C22.7438 35.502 22.6541 34.9722 22.6297 34.4301C22.6256 34.3233 22.6134 34.2206 22.6052 34.1138C22.5563 33.3171 22.65 32.5409 22.9192 31.7893C23.2698 30.8118 23.857 30.0069 24.6603 29.3621C25.5818 28.6269 26.6379 28.2121 27.8082 28.0889C28.2934 28.0355 28.7705 28.0437 29.2516 28.1094C29.8102 28.1875 30.3444 28.3517 30.8541 28.5982C31.4331 28.8774 31.955 29.2471 32.4117 29.707C32.5137 29.8097 32.6115 29.9165 32.7094 30.0192C32.636 30.1752 32.5177 30.2984 32.4117 30.4299C32.0896 30.8406 31.7593 31.2472 31.4331 31.6579C31.2048 31.9453 31.0906 32.2698 31.0947 32.6394C31.0988 32.9228 31.1762 33.1815 31.3312 33.4156C31.5106 33.6908 31.69 33.9619 31.8735 34.2329C32.1141 34.5943 32.3057 34.9763 32.4403 35.3911C32.5422 35.7155 32.6523 36.0359 32.7665 36.3603C32.7909 36.426 32.7909 36.5123 32.8807 36.5534C32.9092 36.4794 32.9459 36.4096 32.9704 36.3357C33.0723 36.0236 33.1824 35.7155 33.2803 35.4034C33.4189 34.964 33.6228 34.5574 33.8837 34.1754C34.0509 33.9249 34.214 33.6744 34.3853 33.4239C34.5361 33.2021 34.6177 32.9557 34.6299 32.6887C34.6462 32.2903 34.528 31.9412 34.2793 31.6332C33.9816 31.2677 33.6921 30.8981 33.3985 30.5325C33.2517 30.3642 33.1212 30.1835 32.9867 30.0069ZM41.5128 33.5306C41.5414 32.0521 40.2896 30.779 38.7768 30.779C37.4761 30.779 36.0489 31.8057 36.0489 33.543C36.0489 35.1282 37.3089 36.3028 38.789 36.2946C40.4527 36.2823 41.5495 34.89 41.5128 33.5306ZM24.5094 33.5306C24.4686 34.89 25.5655 36.2864 27.2332 36.2946C28.7093 36.3028 29.9774 35.1324 29.9733 33.543C29.9733 31.7934 28.538 30.779 27.2455 30.779C25.7327 30.779 24.4809 32.048 24.5094 33.5306Z" fill="#E6E5E5"/>
<path d="M32.9867 30.0069C33.1212 30.1835 33.2517 30.3642 33.3904 30.5367C33.6799 30.9063 33.9734 31.2759 34.2711 31.6373C34.5198 31.9454 34.6381 32.2945 34.6218 32.6928C34.6095 32.9639 34.528 33.2062 34.3771 33.428C34.2099 33.6785 34.0468 33.929 33.8756 34.1796C33.6187 34.5615 33.4148 34.9681 33.2721 35.4075C33.1742 35.7197 33.0641 36.0277 32.9622 36.3398C32.9377 36.4137 32.901 36.4836 32.8725 36.5575C32.7828 36.5123 32.7787 36.4302 32.7583 36.3645C32.6442 36.0441 32.5381 35.7197 32.4321 35.3952C32.3016 34.9804 32.1059 34.5985 31.8653 34.237C31.6859 33.966 31.5024 33.6908 31.323 33.4198C31.1681 33.1857 31.0906 32.9269 31.0865 32.6435C31.0825 32.2739 31.1966 31.9495 31.425 31.662C31.7512 31.2554 32.0774 30.8447 32.4036 30.434C32.5096 30.3026 32.6278 30.1753 32.7012 30.0233C32.7094 30.0151 32.7216 30.011 32.7298 30.0028C32.8195 29.9288 32.9051 29.9412 32.9867 30.0069Z" fill="#AD1E33"/>
<path d="M49.9697 70.0991C49.9656 70.1361 49.9493 70.1484 49.9208 70.1361C49.9126 70.132 49.9085 70.1197 49.9004 70.1073C49.9208 70.1073 49.9452 70.1114 49.9656 70.1114C49.9656 70.1073 49.9697 70.0991 49.9697 70.0991Z" fill="white"/>
<path d="M40.9053 71.1998C40.8972 71.1875 40.8849 71.1792 40.8849 71.1669C40.8849 71.1423 40.8809 71.1053 40.8931 71.1012C40.942 71.0766 40.9502 71.1176 40.9624 71.1505C40.9461 71.1669 40.9257 71.1833 40.9053 71.1998Z" fill="white"/>
<path d="M41.5132 33.5307C41.5499 34.8901 40.4572 36.2823 38.7894 36.2947C37.3093 36.3029 36.0493 35.1324 36.0493 33.543C36.0493 31.8016 37.4765 30.779 38.7772 30.779C40.29 30.779 41.5418 32.0522 41.5132 33.5307Z" fill="#17243B"/>
<path d="M24.5094 33.5307C24.4809 32.0522 25.7327 30.779 27.2454 30.779C28.538 30.779 29.9733 31.7934 29.9733 33.543C29.9733 35.1324 28.7093 36.3029 27.2332 36.2947C25.5655 36.2823 24.4686 34.886 24.5094 33.5307Z" fill="#17243B"/>
</svg>
