<svg width="99" height="239" viewBox="0 0 99 239" fill="none" xmlns="http://www.w3.org/2000/svg">
<path d="M48.8144 239C34.3712 239 19.7932 234.601 10.6519 220.878C1.69345 206.858 0 187.541 0 167.852V165.825C0 164.72 0.895431 163.825 2 163.825H35.0222C36.1267 163.825 37.0222 164.72 37.0222 165.825V196.049C37.0222 200.524 38.2105 204.402 40.5873 207.683C43.1468 210.666 45.9806 212.158 49.0886 212.158C57.6814 212.158 61.9778 205.025 61.9778 189.214V126.658C61.9778 119.498 60.7895 113.532 58.4127 108.759C56.2188 103.687 52.928 101.152 48.5402 101.152C45.0665 101.152 42.1413 102.792 39.7645 106.074C37.6291 109.022 37.4123 124.154 37.1251 130.658C37.079 131.702 36.2148 132.502 35.1695 132.502H2.55262C1.44644 132.502 0.550335 131.604 0.552624 130.497L0.818581 1.99586C0.820863 0.892911 1.71562 0 2.81858 0H91.5152C92.6198 0 93.5152 0.895431 93.5152 2V25.8029C93.5152 26.9075 92.6198 27.8029 91.5152 27.8029H39.0113C37.911 27.8029 37.0173 28.6917 37.0114 29.792L36.7749 73.3758C36.7652 75.1787 39.0227 76.1314 40.4531 75.0339C44.953 71.5816 49.8425 69.8554 55.1219 69.8554C67.3712 69.8554 77.7008 75.9709 86.1108 88.2018C94.7036 100.433 99 118.481 99 142.346V170.089C99 189.181 93.9723 205.44 83.9169 218.864C74.0443 232.288 62.3435 239 48.8144 239Z" fill="#4E3028"/>
</svg>
