<svg width="393" height="2556" viewBox="0 0 393 2556" fill="none" xmlns="http://www.w3.org/2000/svg" xmlns:xlink="http://www.w3.org/1999/xlink">
<g clip-path="url(#clip0_125_58)">
<rect width="393" height="2556" fill="#EBD6C2"/>
<ellipse cx="57.0388" cy="54.0399" rx="57.0388" ry="54.0399" transform="matrix(0.999994 -0.00353151 -0.00370697 0.999993 242.401 1524.4)" fill="url(#pattern0_125_58)"/>
<g filter="url(#filter0_d_125_58)">
<path d="M-161.306 1711.33C-131.908 1709.33 -102.252 1697.56 -83.1061 1673.87C-63.9599 1650.19 -57.7668 1613.47 -72.8127 1586.14C-84.9735 1564.03 -109.792 1547.64 -110.427 1522.12C-110.943 1501.03 -92.4112 1483.61 -72.8474 1481.44C-53.2836 1479.28 10.0275 1548.14 25.3706 1561.61C40.7137 1575.08 63.3279 1595.09 77.1854 1610.26C113.595 1646.27 140.943 1677.75 196.865 1685.24C224.136 1688.9 247.81 1684.8 267.355 1680.67C286.857 1676.55 305.496 1664.54 314.76 1645.78C328.379 1618.29 318.555 1582.17 297.859 1559.74C277.163 1537.31 247.999 1526.34 219.218 1520.38C190.433 1514.38 171.61 1518.07 143.329 1508.76C122.893 1502.03 108.726 1494.77 93.8207 1485.49C79.3594 1474.76 31.6816 1445.81 22.818 1425.1C11.2097 1402.47 26.8254 1376.14 42.6438 1370.64C58.502 1365.1 83.2989 1350.51 99.2254 1345.29C115.152 1340.07 130.976 1328.92 135.112 1311.61C139.114 1294.82 130.709 1276.73 118.397 1265.24C106.042 1253.74 90.3362 1247.55 74.9991 1241.6C38.2054 1227.3 1.45152 1212.95 -35.3422 1198.65C-53.6939 1191.52 -72.7109 1184.25 -92.0744 1185.61C-117.906 1187.44 -140.448 1204.36 -159.366 1223.02C-216.607 1279.47 -253.97 1358.51 -262.734 1441.69C-266.546 1477.58 -265.19 1514.27 -272.502 1549.48C-279.457 1583.08 -313.23 1624.46 -288.252 1656.68C-258.908 1694.66 -205.944 1714.37 -161.306 1711.33Z" fill="#FDC39C"/>
</g>
<path d="M-156.262 1690.14C-126.864 1688.15 -97.2079 1676.37 -78.0617 1652.69C-58.9155 1629.01 -52.7223 1592.29 -67.7683 1564.96C-79.9291 1542.84 -104.747 1526.46 -105.383 1500.94C-105.899 1479.85 -87.3668 1462.43 -67.803 1460.26C-48.2392 1458.1 15.0719 1526.96 30.415 1540.43C45.7581 1553.9 68.3724 1573.91 82.2298 1589.08C118.64 1625.08 145.987 1656.57 201.91 1664.06C229.18 1667.72 252.854 1663.62 272.4 1659.49C291.901 1655.37 310.541 1643.36 319.805 1624.6C333.423 1597.11 323.6 1560.99 302.903 1538.56C282.207 1516.13 253.043 1505.16 224.262 1499.2C195.477 1493.2 176.655 1496.88 148.373 1487.58C127.938 1480.85 113.77 1473.59 98.8651 1464.31C84.4039 1453.58 36.7261 1424.63 27.8625 1403.92C16.2541 1381.29 31.8698 1354.95 47.6882 1349.46C63.5464 1343.92 88.3434 1329.33 104.27 1324.11C120.196 1318.89 136.02 1307.74 140.157 1290.42C144.159 1273.63 135.753 1255.55 123.441 1244.05C111.086 1232.56 95.3806 1226.36 80.0436 1220.42C43.2498 1206.12 6.49595 1191.77 -30.2978 1177.47C-48.6495 1170.34 -67.6664 1163.07 -87.03 1164.43C-112.861 1166.25 -135.404 1183.17 -154.321 1201.84C-211.563 1258.29 -248.926 1337.33 -257.689 1420.51C-261.501 1456.4 -260.146 1493.09 -267.458 1528.3C-274.413 1561.9 -308.185 1603.28 -283.208 1635.5C-253.863 1673.48 -200.899 1693.19 -156.262 1690.14Z" fill="url(#paint0_linear_125_58)" fill-opacity="0.4"/>
<g clip-path="url(#clip1_125_58)">
<g clip-path="url(#clip2_125_58)">
<path d="M341.3 396.5C338.7 395.5 336.1 394.6 333.5 393.7L134.7 592.5C135.6 595.1 136.5 597.7 137.5 600.3L341.3 396.5Z" fill="#6EC6ED"/>
<path d="M375.8 415.1C373.7 413.6 371.6 412.2 369.5 410.8L151.9 628.5C153.3 630.6 154.7 632.8 156.2 634.8L375.8 415.1Z" fill="#6EC6ED"/>
<path d="M298.3 386.5C295 386.2 291.6 386 288.2 386L127 547.2C127.1 550.6 127.3 553.9 127.5 557.3L298.3 386.5Z" fill="#6EC6ED"/>
<path d="M239.3 392.5C233.6 394.2 228.1 396.2 222.7 398.5L139.5 481.7C137.2 487.1 135.2 492.6 133.5 498.3L239.3 392.5Z" fill="#6EC6ED"/>
<path d="M438.7 511.4C438.1 508.5 437.4 505.7 436.7 502.8L243.8 695.6C246.6 696.4 249.5 697 252.4 697.6L438.7 511.4Z" fill="#6EC6ED"/>
<path d="M440.8 562.3C441.3 558.5 441.6 554.6 441.8 550.7L291.7 700.8C295.6 700.6 299.5 700.3 303.3 699.8L440.8 562.3Z" fill="#6EC6ED"/>
<path d="M403.5 440.4C401.9 438.5 400.2 436.7 398.5 434.8L175.9 657.5C177.7 659.2 179.6 660.9 181.5 662.5L403.5 440.4Z" fill="#6EC6ED"/>
<path d="M416.9 628.6L369.6 675.9C388.6 663.7 404.7 647.6 416.9 628.6Z" fill="#6EC6ED"/>
<path d="M424.9 472.1C423.7 469.8 422.5 467.5 421.2 465.2L206.2 680.2C208.5 681.5 210.8 682.7 213.1 683.9L424.9 472.1Z" fill="#6EC6ED"/>
</g>
<g filter="url(#filter1_d_125_58)">
<path d="M5.07029 -25.1281C-32.5636 -11.7279 -64.3923 20.6335 -71.6655 60.03C-78.872 99.4265 -57.5862 143.915 -20.1524 157.918C10.0081 169.241 43.6384 160.397 74.3327 150.749C105.027 141.101 137.59 130.448 168.818 138.421C200.046 146.394 226.536 181.637 212.724 210.849C204.25 228.738 184.632 237.917 170.353 251.518C144.529 276.108 137.189 316.576 147.665 350.747C158.142 384.917 184.298 412.79 215.126 430.612C274.446 464.916 352.784 462.973 410.302 425.654C467.821 388.401 501.918 317.514 495.245 249.106C487.572 170.246 430.253 103.313 362.059 63.4471C297.067 25.5246 225.402 16.6805 156.273 -8.98086C106.695 -27.3391 58.1181 -44.0893 5.07029 -25.1281Z" fill="#FFF8A7"/>
</g>
<g filter="url(#filter2_d_125_58)">
<path d="M102.024 -84.6918C64.3905 -71.2916 32.5618 -38.9302 25.2886 0.46632C18.0821 39.8628 39.3679 84.3514 76.8017 98.3546C106.962 109.611 140.592 100.834 171.287 91.1855C201.981 81.4703 234.544 70.8842 265.772 78.7903C297 86.7634 323.491 122.006 309.678 151.218C301.204 169.107 281.586 178.287 267.307 191.888C241.483 216.477 234.143 256.946 244.62 291.116C255.096 325.286 281.253 353.159 312.08 370.981C371.4 405.285 449.738 403.342 507.256 366.023C564.775 328.703 598.872 257.884 592.199 189.476C584.526 110.616 527.207 43.6149 459.013 3.81636C393.954 -33.9721 322.356 -42.8832 253.161 -68.4776C203.583 -86.8358 155.072 -103.586 102.024 -84.6918Z" fill="url(#paint1_linear_125_58)"/>
</g>
<g clip-path="url(#clip3_125_58)">
<path d="M150.889 182.491L135.766 185.633L135.074 185.792L110.58 197.028L113.136 199.797L150.889 182.491Z" fill="#FFF8A7"/>
<path d="M159.994 196.176L161.539 191.49L121.921 209.648L124.424 212.47L159.994 196.176Z" fill="#FFF8A7"/>
<path d="M163.456 185.686L165 181L116.224 203.311L118.78 206.134L163.456 185.686Z" fill="#FFF8A7"/>
<path d="M106 191.863L107.491 193.513L115.265 189.946L106 191.863Z" fill="#FFF8A7"/>
<path d="M149.611 227.646L151.155 223.013L138.855 228.658L141.357 231.427L149.611 227.646Z" fill="#FFF8A7"/>
<path d="M147.694 233.504L144.499 234.941L146.469 237.178L147.694 233.504Z" fill="#FFF8A7"/>
<path d="M153.072 217.156L154.617 212.47L133.21 222.321L135.713 225.144L153.072 217.156Z" fill="#FFF8A7"/>
<path d="M156.533 206.666L158.078 201.98L127.566 215.984L130.069 218.807L156.533 206.666Z" fill="#FFF8A7"/>
</g>
<g clip-path="url(#clip4_125_58)">
<rect width="393" height="852" fill="#EBD6C2"/>
<g filter="url(#filter3_d_125_58)">
<path d="M326.571 -76.5594C363.414 -64.6264 426.309 17.7113 433.429 52.7943C440.484 87.8773 419.646 127.495 382.999 139.965C353.473 150.048 311 149.572 286.5 133.581C256.5 114 238.39 61.9797 194.5 67.5C156.856 72.2347 109.76 107.567 123.283 133.581C131.579 149.511 150.784 157.685 164.763 169.797C190.044 191.694 197.229 227.732 186.973 258.161C176.717 288.59 151.111 313.411 120.931 329.282C62.8577 359.83 -13.8328 358.1 -70.1422 324.867C-126.452 291.693 -159.832 228.567 -153.3 167.649C-145.788 97.4237 -89.6741 37.8184 -22.9129 2.31771C40.7128 -31.4527 110.871 -39.3284 178.546 -62.1801C227.082 -78.5283 274.638 -93.4446 326.571 -76.5594Z" fill="#FFF8A7"/>
</g>
<g clip-path="url(#clip5_125_58)">
<path d="M183.817 108.328L198.622 111.125L199.3 111.268L223.28 121.273L220.777 123.739L183.817 108.328Z" fill="#FFF8A7"/>
<path d="M174.903 120.514L173.391 116.342L212.176 132.511L209.726 135.025L174.903 120.514Z" fill="#FFF8A7"/>
<path d="M171.515 111.173L170.003 107L217.754 126.869L215.252 129.382L171.515 111.173Z" fill="#FFF8A7"/>
<path d="M227.763 116.673L226.303 118.143L218.692 114.966L227.763 116.673Z" fill="#FFF8A7"/>
<path d="M185.068 148.539L183.557 144.414L195.599 149.44L193.149 151.906L185.068 148.539Z" fill="#FFF8A7"/>
<path d="M186.945 153.755L190.073 155.035L188.144 157.027L186.945 153.755Z" fill="#FFF8A7"/>
<path d="M181.68 139.198L180.168 135.025L201.124 143.797L198.674 146.31L181.68 139.198Z" fill="#FFF8A7"/>
<path d="M178.292 129.856L176.78 125.683L206.65 138.154L204.2 140.667L178.292 129.856Z" fill="#FFF8A7"/>
</g>
<g filter="url(#filter4_d_125_58)">
<path d="M231.655 -129.602C268.498 -117.669 299.657 -88.8504 306.778 -53.7674C313.833 -18.6843 292.994 20.9332 256.347 33.4032C226.821 43.4269 193.897 35.6108 163.848 27.019C133.799 18.3676 101.921 8.94055 71.3494 15.981C40.7777 23.0812 14.8441 54.4649 28.3662 80.4789C36.6623 96.4094 55.8676 104.584 69.847 116.696C95.1274 138.593 102.313 174.63 92.0572 205.059C81.8013 235.489 56.1943 260.309 26.0145 276.18C-32.0586 306.729 -108.749 304.998 -165.059 271.765C-221.368 238.531 -254.749 175.466 -248.216 114.548C-240.704 44.3219 -184.59 -15.3431 -117.829 -50.7841C-54.1382 -84.4352 15.9546 -92.3706 83.6957 -115.163C132.232 -131.511 179.722 -146.427 231.655 -129.602Z" fill="url(#paint2_linear_125_58)"/>
</g>
<path d="M255.3 517.5C252.7 516.5 250.1 515.6 247.5 514.7L48.7002 713.5C49.6002 716.1 50.5002 718.7 51.5002 721.3L255.3 517.5Z" fill="#6EC6ED"/>
<path d="M289.8 536.1C287.7 534.6 285.6 533.2 283.5 531.8L65.9001 749.5C67.3001 751.6 68.7001 753.8 70.2001 755.8L289.8 536.1Z" fill="#6EC6ED"/>
<path d="M212.3 507.5C209 507.2 205.6 507 202.2 507L41.0002 668.2C41.1002 671.6 41.3002 674.9 41.5002 678.3L212.3 507.5Z" fill="#6EC6ED"/>
<path d="M153.3 513.5C147.6 515.2 142.1 517.2 136.7 519.5L53.5002 602.7C51.2002 608.1 49.2002 613.6 47.5002 619.3L153.3 513.5Z" fill="#6EC6ED"/>
<path d="M352.7 632.4C352.1 629.5 351.4 626.7 350.7 623.8L157.8 816.6C160.6 817.4 163.5 818 166.4 818.6L352.7 632.4Z" fill="#6EC6ED"/>
<path d="M354.8 683.3C355.3 679.5 355.6 675.6 355.8 671.7L205.7 821.8C209.6 821.6 213.5 821.3 217.3 820.8L354.8 683.3Z" fill="#6EC6ED"/>
<path d="M317.5 561.4C315.9 559.5 314.2 557.7 312.5 555.8L89.9001 778.5C91.7001 780.2 93.6001 781.9 95.5001 783.5L317.5 561.4Z" fill="#6EC6ED"/>
<path d="M330.9 749.6L283.6 796.9C302.6 784.7 318.7 768.6 330.9 749.6Z" fill="#6EC6ED"/>
<path d="M338.9 593.1C337.7 590.8 336.5 588.5 335.2 586.2L120.2 801.2C122.5 802.5 124.8 803.7 127.1 804.9L338.9 593.1Z" fill="#6EC6ED"/>
</g>
</g>
<g clip-path="url(#clip6_125_58)">
<path d="M166.145 602.387C203.342 563.346 257.245 540.469 311.475 540.685C350.766 540.845 389.064 552.449 428.107 556.511C467.151 560.572 510.38 555.417 538.304 528.221C573.435 493.895 575.034 433.807 614.083 403.998C654.224 373.416 720.529 385.731 751.403 346.104C784.405 303.804 749.45 238.582 771.588 189.825C786.494 157.117 824.827 139.826 861.2 139.748C897.475 139.648 932.301 153.528 965.504 168.265C1084.89 221.209 1201.03 291.182 1277.92 396.089C1354.74 500.781 1385.14 646.431 1326.83 762.039C1295.31 824.542 1240.73 873.638 1179.27 908.028C1117.82 942.321 1049.47 962.919 980.714 978.863C849.697 1009.15 714.757 1023.35 580 1020.96C486.54 1019.38 390.884 1009.2 306.704 968.4C177.567 905.799 44.6799 729.903 166.145 602.387Z" fill="#A2E3FF"/>
<g opacity="0.5" filter="url(#filter5_d_125_58)">
<path d="M196.597 631.364C233.794 592.323 287.697 569.446 341.927 569.662C381.218 569.823 419.516 581.427 458.559 585.488C497.603 589.549 540.832 584.394 568.756 557.198C603.887 522.873 605.486 462.784 644.535 432.975C684.676 402.393 750.981 414.708 781.855 375.081C814.857 332.781 779.902 267.559 802.04 218.803C816.946 186.094 855.279 168.803 891.652 168.725C927.927 168.626 962.753 182.505 995.956 197.243C1115.35 250.186 1231.49 320.159 1308.47 425.088C1385.27 529.877 1415.57 675.505 1357.28 791.016C1325.76 853.519 1271.18 902.615 1209.72 937.005C1148.25 971.395 1079.92 991.896 1011.17 1007.84C880.128 1038.22 745.188 1052.42 610.43 1050.04C516.992 1048.36 421.336 1038.18 337.254 997.399C207.998 934.873 75.2295 758.902 196.597 631.364Z" fill="url(#paint3_linear_125_58)"/>
</g>
</g>
</g>
<defs>
<filter id="filter0_d_125_58" x="-316.725" y="1178.05" width="657.17" height="564.987" filterUnits="userSpaceOnUse" color-interpolation-filters="sRGB">
<feFlood flood-opacity="0" result="BackgroundImageFix"/>
<feColorMatrix in="SourceAlpha" type="matrix" values="0 0 0 0 0 0 0 0 0 0 0 0 0 0 0 0 0 0 127 0" result="hardAlpha"/>
<feOffset dy="12"/>
<feGaussianBlur stdDeviation="9.7"/>
<feComposite in2="hardAlpha" operator="out"/>
<feColorMatrix type="matrix" values="0 0 0 0 0 0 0 0 0 0 0 0 0 0 0 0 0 0 0.25 0"/>
<feBlend mode="normal" in2="BackgroundImageFix" result="effect1_dropShadow_125_58"/>
<feBlend mode="normal" in="SourceGraphic" in2="effect1_dropShadow_125_58" result="shape"/>
</filter>
<filter id="filter1_d_125_58" x="-86.7586" y="-36.1827" width="596.533" height="515.937" filterUnits="userSpaceOnUse" color-interpolation-filters="sRGB">
<feFlood flood-opacity="0" result="BackgroundImageFix"/>
<feColorMatrix in="SourceAlpha" type="matrix" values="0 0 0 0 0 0 0 0 0 0 0 0 0 0 0 0 0 0 127 0" result="hardAlpha"/>
<feOffset dy="11"/>
<feGaussianBlur stdDeviation="6.85"/>
<feComposite in2="hardAlpha" operator="out"/>
<feColorMatrix type="matrix" values="0 0 0 0 0 0 0 0 0 0 0 0 0 0 0 0 0 0 0.25 0"/>
<feBlend mode="normal" in2="BackgroundImageFix" result="effect1_dropShadow_125_58"/>
<feBlend mode="normal" in="SourceGraphic" in2="effect1_dropShadow_125_58" result="shape"/>
</filter>
<filter id="filter2_d_125_58" x="19.8955" y="-93.0012" width="577.133" height="496.425" filterUnits="userSpaceOnUse" color-interpolation-filters="sRGB">
<feFlood flood-opacity="0" result="BackgroundImageFix"/>
<feColorMatrix in="SourceAlpha" type="matrix" values="0 0 0 0 0 0 0 0 0 0 0 0 0 0 0 0 0 0 127 0" result="hardAlpha"/>
<feOffset dy="4"/>
<feGaussianBlur stdDeviation="2"/>
<feComposite in2="hardAlpha" operator="out"/>
<feColorMatrix type="matrix" values="0 0 0 0 0 0 0 0 0 0 0 0 0 0 0 0 0 0 0.25 0"/>
<feBlend mode="normal" in2="BackgroundImageFix" result="effect1_dropShadow_125_58"/>
<feBlend mode="normal" in="SourceGraphic" in2="effect1_dropShadow_125_58" result="shape"/>
</filter>
<filter id="filter3_d_125_58" x="-167.812" y="-86.6993" width="616.305" height="462.447" filterUnits="userSpaceOnUse" color-interpolation-filters="sRGB">
<feFlood flood-opacity="0" result="BackgroundImageFix"/>
<feColorMatrix in="SourceAlpha" type="matrix" values="0 0 0 0 0 0 0 0 0 0 0 0 0 0 0 0 0 0 127 0" result="hardAlpha"/>
<feOffset dy="11"/>
<feGaussianBlur stdDeviation="6.85"/>
<feComposite in2="hardAlpha" operator="out"/>
<feColorMatrix type="matrix" values="0 0 0 0 0 0 0 0 0 0 0 0 0 0 0 0 0 0 0.25 0"/>
<feBlend mode="normal" in2="BackgroundImageFix" result="effect1_dropShadow_125_58"/>
<feBlend mode="normal" in="SourceGraphic" in2="effect1_dropShadow_125_58" result="shape"/>
</filter>
<filter id="filter4_d_125_58" x="-280.528" y="-155.501" width="596.169" height="473.947" filterUnits="userSpaceOnUse" color-interpolation-filters="sRGB">
<feFlood flood-opacity="0" result="BackgroundImageFix"/>
<feColorMatrix in="SourceAlpha" type="matrix" values="0 0 0 0 0 0 0 0 0 0 0 0 0 0 0 0 0 0 127 0" result="hardAlpha"/>
<feOffset dx="-12" dy="1"/>
<feGaussianBlur stdDeviation="9.75"/>
<feComposite in2="hardAlpha" operator="out"/>
<feColorMatrix type="matrix" values="0 0 0 0 0.682692 0 0 0 0 0.25032 0 0 0 0 0 0 0 0 0.24 0"/>
<feBlend mode="normal" in2="BackgroundImageFix" result="effect1_dropShadow_125_58"/>
<feBlend mode="normal" in="SourceGraphic" in2="effect1_dropShadow_125_58" result="shape"/>
</filter>
<filter id="filter5_d_125_58" x="134.063" y="148.025" width="1268.39" height="910.97" filterUnits="userSpaceOnUse" color-interpolation-filters="sRGB">
<feFlood flood-opacity="0" result="BackgroundImageFix"/>
<feColorMatrix in="SourceAlpha" type="matrix" values="0 0 0 0 0 0 0 0 0 0 0 0 0 0 0 0 0 0 127 0" result="hardAlpha"/>
<feOffset dy="-6"/>
<feGaussianBlur stdDeviation="7.35"/>
<feComposite in2="hardAlpha" operator="out"/>
<feColorMatrix type="matrix" values="0 0 0 0 0 0 0 0 0 0 0 0 0 0 0 0 0 0 0.25 0"/>
<feBlend mode="normal" in2="BackgroundImageFix" result="effect1_dropShadow_125_58"/>
<feBlend mode="normal" in="SourceGraphic" in2="effect1_dropShadow_125_58" result="shape"/>
</filter>
<linearGradient id="paint0_linear_125_58" x1="18.1565" y1="1424.39" x2="14.7925" y2="1574.7" gradientUnits="userSpaceOnUse">
<stop stop-color="white"/>
<stop offset="1" stop-color="#FDC39C"/>
</linearGradient>
<linearGradient id="paint1_linear_125_58" x1="452.492" y1="18.0991" x2="242.94" y2="185.055" gradientUnits="userSpaceOnUse">
<stop stop-color="white"/>
<stop offset="1" stop-color="#FBFB9C"/>
</linearGradient>
<linearGradient id="paint2_linear_125_58" x1="-111.445" y1="-38.0652" x2="78.3329" y2="128.157" gradientUnits="userSpaceOnUse">
<stop stop-color="white"/>
<stop offset="1" stop-color="#FBFB9C"/>
</linearGradient>
<linearGradient id="paint3_linear_125_58" x1="445.583" y1="484.144" x2="799.298" y2="665.75" gradientUnits="userSpaceOnUse">
<stop stop-color="white"/>
<stop offset="1" stop-color="#A2E3FF"/>
</linearGradient>
<clipPath id="clip0_125_58">
<rect width="393" height="2556" fill="white"/>
</clipPath>
<clipPath id="clip1_125_58">
<rect width="393" height="852" fill="white"/>
</clipPath>
<clipPath id="clip2_125_58">
<rect width="314.8" height="314.8" fill="white" transform="translate(127 386)"/>
</clipPath>
<clipPath id="clip3_125_58">
<rect width="59" height="56.1778" fill="white" transform="translate(106 181)"/>
</clipPath>
<clipPath id="clip4_125_58">
<rect width="393" height="852" fill="white"/>
</clipPath>
<clipPath id="clip5_125_58">
<rect width="57.7598" height="50.0269" fill="white" transform="matrix(-1 0 0 1 227.763 107)"/>
</clipPath>
<clipPath id="clip6_125_58">
<rect width="1273.1" height="989.651" fill="white" transform="translate(1301.13 1246.48) rotate(-167.543)"/>
</clipPath>
<pattern id="pattern0_125_58" patternUnits="userSpaceOnUse" patternTransform="matrix(21.6451 0 0 23.9603 0 2.03555e-07)" preserveAspectRatio="none" viewBox="0 1.01777e-06 108.226 119.801" width="1" height="1">
<use xlink:href="#pattern0_125_58_inner" transform="translate(-108.226 -119.801)"/>
<use xlink:href="#pattern0_125_58_inner" transform="translate(0 -119.801)"/>
<use xlink:href="#pattern0_125_58_inner" transform="translate(-108.226 0)"/>
<g id="pattern0_125_58_inner">
<path d="M138.751 4.57834e-05C131.327 2.46796 116.351 -0.129156 109.318 3.20979L0.955343 123.993C-2.04025 131.832 3.16924 145.317 0.955111 153.592L138.751 4.57834e-05Z" fill="#F9B78B"/>
</g>
</pattern></defs>
</svg>
