<svg width="787" height="791" viewBox="0 0 787 791" fill="none" xmlns="http://www.w3.org/2000/svg">
<path d="M785.587 512.934C783.253 470.083 766.764 425.346 734.955 399.507C703.147 373.669 655.11 372.737 630.755 404.061C618.406 419.934 611.747 443.126 594.191 451.224C574.371 460.379 549.912 444.208 538.445 422.512C526.991 400.87 524.775 375.347 521.388 350.896C515.226 306.338 503.303 260.656 476.694 225.519C450.132 190.37 406.002 168.545 368.771 182.337C351.18 188.87 333.92 202.85 315.598 196.643C290.643 188.176 285.571 151.947 278.57 123.826C262.614 59.9736 208.568 8.21169 150.276 0.904069C91.9836 -6.40355 33.6672 31.2307 11.7769 90.32C-7.93395 143.542 0.933529 205.696 10.7137 264.088C27.8302 366.584 47.346 470.405 90.62 564.392C133.894 658.379 204.506 742.614 293.632 775.211C361.148 799.875 433.753 793.078 499.386 770.456C560.595 749.36 616.75 715.23 671.943 680.604C693.819 666.903 715.488 653.366 738.237 641.419C752.521 633.893 764.42 626.725 771.952 610.566C784.758 583.18 787.401 544.115 785.587 512.934Z" fill="#FDC1C7"/>
</svg>
