<svg width="393" height="852" viewBox="0 0 393 852" fill="none" xmlns="http://www.w3.org/2000/svg">
<g clip-path="url(#clip0_172_78)">
<rect width="393" height="852" fill="#EBD6C2"/>
<g clip-path="url(#clip1_172_78)">
<path d="M-61.0159 946.281C-56.3031 926.568 -51.5903 906.856 -46.943 887.205C-43.0755 871.121 -39.1196 854.753 -27.3236 838.584C-15.5277 822.415 5.50866 806.214 32.4204 797.978C84.8098 781.922 137.407 801.134 188.863 783.353C214.259 774.591 231.506 759.109 240.427 743.116C244.581 735.658 246.848 728.121 247.311 721.137C248.654 699.062 236.412 679.981 231.435 659.192C226.545 638.426 230.736 613.253 258.52 593.032C292.654 568.194 352.798 557.649 379.645 530.676C408.172 502.044 380.961 475.908 365.126 451.724C343.141 418.203 345.273 375.989 371.065 334.601C389.28 305.622 417.561 278.234 451.008 252L594 804.271L13.9541 954.455L-68.0081 975.676C-65.6738 965.891 -63.3501 956.065 -61.0159 946.281Z" fill="#99CD9D"/>
<g filter="url(#filter0_d_172_78)">
<path d="M-105.636 989.039C-100.986 968.316 -96.3367 947.593 -91.7534 926.933C-87.9369 910.025 -84.0325 892.817 -72.1102 875.887C-60.188 858.957 -38.8181 842.072 -11.3726 833.628C42.0556 817.164 95.9983 837.852 148.457 819.563C174.349 810.552 191.851 794.392 200.835 777.623C205.018 769.802 207.271 761.882 207.685 754.53C208.869 731.289 196.188 711.085 190.922 689.145C185.744 667.229 189.813 640.749 218.048 619.688C252.735 593.818 314.14 583.226 341.358 555.044C370.28 525.129 342.234 497.367 325.836 471.757C303.071 436.259 304.889 391.813 330.905 348.437C349.28 318.069 377.962 289.463 411.935 262.116L562.871 845.07L-28.9126 998.292L-112.533 1019.94C-110.231 1009.66 -107.939 999.326 -105.636 989.039Z" fill="url(#paint0_linear_172_78)" shape-rendering="crispEdges"/>
</g>
</g>
<path d="M-153.288 724.094C-125.417 722.763 -97.9455 719.346 -71.8079 711.066C-54.6717 705.623 -38.2023 697.633 -24 687.5C-1.46296 671.461 15.2731 650.153 19.6738 625.429C24.8747 596.246 20.0178 536.115 61.5 510.5C106.656 482.617 142.948 480.498 208.33 466.999C249.5 458.499 290.002 422.999 290.002 374.057C290.002 319.927 247.502 301.557 196.328 254.057C135.082 197.207 175.525 13.6065 171.858 -11.8706C168.324 -36.1317 181.392 -60.3928 200.462 -78.4584C202.996 -80.8903 205.663 -83.1485 208.33 -85.4067C204.33 -97.6242 200.329 -109.784 196.328 -122.001H-165.998L-153.288 724.094Z" fill="#9AC8FC"/>
<path d="M-132.29 666.095C-104.419 664.764 -76.9475 661.347 -50.8098 653.067C-33.6737 647.624 -17.2043 639.634 -3.00195 629.501C19.5351 613.462 36.2712 592.154 40.6719 567.43C45.8727 538.247 41.0159 478.116 82.498 452.501C127.654 424.618 163.946 422.499 229.328 409C270.498 400.5 311 365 311 316.058C311 261.928 268.5 243.558 217.326 196.058C156.08 139.208 196.523 -44.3926 192.856 -69.8696C189.322 -94.1308 202.391 -118.392 221.46 -136.457C223.994 -138.889 226.661 -141.148 229.328 -143.406C225.328 -155.623 221.327 -167.783 217.326 -180H-145L-132.29 666.095Z" fill="url(#paint1_linear_172_78)"/>
</g>
<defs>
<filter id="filter0_d_172_78" x="-116.533" y="262.116" width="683.404" height="765.826" filterUnits="userSpaceOnUse" color-interpolation-filters="sRGB">
<feFlood flood-opacity="0" result="BackgroundImageFix"/>
<feColorMatrix in="SourceAlpha" type="matrix" values="0 0 0 0 0 0 0 0 0 0 0 0 0 0 0 0 0 0 127 0" result="hardAlpha"/>
<feOffset dy="4"/>
<feGaussianBlur stdDeviation="2"/>
<feComposite in2="hardAlpha" operator="out"/>
<feColorMatrix type="matrix" values="0 0 0 0 0 0 0 0 0 0 0 0 0 0 0 0 0 0 0.25 0"/>
<feBlend mode="normal" in2="BackgroundImageFix" result="effect1_dropShadow_172_78"/>
<feBlend mode="normal" in="SourceGraphic" in2="effect1_dropShadow_172_78" result="shape"/>
</filter>
<linearGradient id="paint0_linear_172_78" x1="74.233" y1="349.553" x2="225.169" y2="932.506" gradientUnits="userSpaceOnUse">
<stop stop-color="#A8D3A6"/>
<stop offset="1" stop-color="white" stop-opacity="0"/>
</linearGradient>
<linearGradient id="paint1_linear_172_78" x1="83.0001" y1="-180" x2="83.0001" y2="666.095" gradientUnits="userSpaceOnUse">
<stop stop-color="#ADD2FC"/>
<stop offset="1" stop-color="white" stop-opacity="0"/>
</linearGradient>
<clipPath id="clip0_172_78">
<rect width="393" height="852" fill="white"/>
</clipPath>
<clipPath id="clip1_172_78">
<rect width="570.483" height="683.838" fill="white" transform="matrix(0.250651 0.968078 0.968078 -0.250651 -211 423.404)"/>
</clipPath>
</defs>
</svg>
