<svg width="393" height="852" viewBox="0 0 393 852" fill="none" xmlns="http://www.w3.org/2000/svg">
<g clip-path="url(#clip0_172_78)">
<rect width="393" height="852" fill="#EBD6C2"/>
<g clip-path="url(#clip1_172_78)">
<path d="M-61.0159 946.281C-56.3031 926.568 -51.5903 906.856 -46.943 887.205C-43.0755 871.121 -39.1196 854.753 -27.3236 838.584C-15.5277 822.415 5.50866 806.214 32.4204 797.978C84.8098 781.922 137.407 801.134 188.863 783.353C214.259 774.591 231.506 759.109 240.427 743.116C244.581 735.658 246.848 728.121 247.311 721.137C248.654 699.062 236.412 679.981 231.435 659.192C226.545 638.426 230.736 613.253 258.52 593.032C292.654 568.194 352.798 557.649 379.645 530.676C408.172 502.044 380.961 475.908 365.126 451.724C343.141 418.203 345.273 375.989 371.065 334.601C389.28 305.622 417.561 278.234 451.008 252L594 804.271L13.9541 954.455L-68.0081 975.676C-65.6738 965.891 -63.3501 956.065 -61.0159 946.281Z" fill="#99CD9D"/>
<g filter="url(#filter0_d_172_78)">
<path d="M-105.636 989.039C-100.986 968.316 -96.3367 947.593 -91.7534 926.933C-87.9369 910.025 -84.0325 892.817 -72.1102 875.887C-60.188 858.957 -38.8181 842.072 -11.3726 833.628C42.0556 817.164 95.9983 837.852 148.457 819.563C174.349 810.552 191.851 794.392 200.835 777.623C205.018 769.802 207.271 761.882 207.685 754.53C208.869 731.289 196.188 711.085 190.922 689.145C185.744 667.229 189.813 640.749 218.048 619.688C252.735 593.818 314.14 583.226 341.358 555.044C370.28 525.129 342.234 497.367 325.836 471.757C303.071 436.259 304.889 391.813 330.905 348.437C349.28 318.069 377.962 289.463 411.935 262.116L562.871 845.07L-28.9126 998.292L-112.533 1019.94C-110.231 1009.66 -107.939 999.326 -105.636 989.039Z" fill="url(#paint0_linear_172_78)" shape-rendering="crispEdges"/>
</g>
</g>
<path d="M-145 395C-117.129 393.668 -89.6576 390.252 -63.5199 381.972C-46.3838 376.529 -29.9144 368.539 -15.7121 358.406C6.82499 342.367 23.5611 321.059 27.9618 296.334C33.1627 267.151 41.7379 225.615 83.2201 200C128.376 172.117 171.671 183.5 229.328 183.5C294.083 183.5 322.477 174.004 335.679 139.494C345.014 115.175 335.679 82 312.809 68.2162C264.761 39.2584 196.523 16.5496 192.856 -8.92746C189.322 -33.1886 202.391 -57.4497 221.46 -75.5153C223.994 -77.9472 226.661 -80.2054 229.328 -82.4636C225.328 -94.681 221.327 -106.841 217.326 -119.058H-145L-145 395Z" fill="#9AC8FC"/>
<g filter="url(#filter1_d_172_78)">
<path d="M-145 379.058C-117.129 377.726 -89.6576 374.31 -63.5199 366.03C-46.3838 360.587 -29.9144 352.597 -15.7121 342.464C6.82499 326.425 23.5611 305.117 27.9618 280.392C33.1627 251.209 41.7379 209.673 83.2201 184.058C128.376 156.175 171.671 167.558 229.328 167.558C294.083 167.558 322.477 158.062 335.679 123.552C345.014 99.2332 335.679 66.0581 312.809 52.2743C264.761 23.3165 196.523 0.607723 192.856 -24.8694C189.322 -49.1305 202.391 -73.3916 221.46 -91.4572C223.994 -93.8891 226.661 -96.1473 229.328 -98.4055C225.328 -110.623 221.327 -122.782 217.326 -135H-145L-145 379.058Z" fill="url(#paint1_linear_172_78)" shape-rendering="crispEdges"/>
</g>
</g>
<defs>
<filter id="filter0_d_172_78" x="-116.533" y="262.116" width="683.404" height="765.826" filterUnits="userSpaceOnUse" color-interpolation-filters="sRGB">
<feFlood flood-opacity="0" result="BackgroundImageFix"/>
<feColorMatrix in="SourceAlpha" type="matrix" values="0 0 0 0 0 0 0 0 0 0 0 0 0 0 0 0 0 0 127 0" result="hardAlpha"/>
<feOffset dy="4"/>
<feGaussianBlur stdDeviation="2"/>
<feComposite in2="hardAlpha" operator="out"/>
<feColorMatrix type="matrix" values="0 0 0 0 0 0 0 0 0 0 0 0 0 0 0 0 0 0 0.25 0"/>
<feBlend mode="normal" in2="BackgroundImageFix" result="effect1_dropShadow_172_78"/>
<feBlend mode="normal" in="SourceGraphic" in2="effect1_dropShadow_172_78" result="shape"/>
</filter>
<filter id="filter1_d_172_78" x="-149" y="-135" width="492.264" height="522.058" filterUnits="userSpaceOnUse" color-interpolation-filters="sRGB">
<feFlood flood-opacity="0" result="BackgroundImageFix"/>
<feColorMatrix in="SourceAlpha" type="matrix" values="0 0 0 0 0 0 0 0 0 0 0 0 0 0 0 0 0 0 127 0" result="hardAlpha"/>
<feOffset dy="4"/>
<feGaussianBlur stdDeviation="2"/>
<feComposite in2="hardAlpha" operator="out"/>
<feColorMatrix type="matrix" values="0 0 0 0 0 0 0 0 0 0 0 0 0 0 0 0 0 0 0.25 0"/>
<feBlend mode="normal" in2="BackgroundImageFix" result="effect1_dropShadow_172_78"/>
<feBlend mode="normal" in="SourceGraphic" in2="effect1_dropShadow_172_78" result="shape"/>
</filter>
<linearGradient id="paint0_linear_172_78" x1="74.233" y1="349.553" x2="225.169" y2="932.506" gradientUnits="userSpaceOnUse">
<stop stop-color="#A8D3A6"/>
<stop offset="1" stop-color="white" stop-opacity="0"/>
</linearGradient>
<linearGradient id="paint1_linear_172_78" x1="97.1322" y1="-135" x2="97.1322" y2="379.058" gradientUnits="userSpaceOnUse">
<stop stop-color="#ADD2FC"/>
<stop offset="1" stop-color="white" stop-opacity="0"/>
</linearGradient>
<clipPath id="clip0_172_78">
<rect width="393" height="852" fill="white"/>
</clipPath>
<clipPath id="clip1_172_78">
<rect width="570.483" height="683.838" fill="white" transform="matrix(0.250651 0.968078 0.968078 -0.250651 -211 423.404)"/>
</clipPath>
</defs>
</svg>
