<svg width="89" height="89" viewBox="0 0 89 89" fill="none" xmlns="http://www.w3.org/2000/svg">
<g filter="url(#filter0_d_130_248)">
<path d="M85 43.6359C84.919 44.0987 84.8149 44.5616 84.7686 45.036C84.4333 48.4938 83.6114 51.8869 82.327 55.1147C81.0547 58.5022 79.2967 61.6868 77.1083 64.5686C75.9511 66.0613 74.794 67.5193 73.4749 68.8963C72.4834 69.9199 71.42 70.8712 70.2927 71.7429C68.9967 72.7727 67.666 73.7679 66.2774 74.6936C64.3262 76.0143 62.2247 77.098 60.0173 77.922C57.9576 78.6626 55.8863 79.4031 53.7687 79.9701C52.2644 80.3751 50.6907 80.514 49.1401 80.7686L47.6243 81H41.3641C40.9013 80.919 40.4384 80.8149 39.964 80.7686C36.5062 80.4333 33.1131 79.6114 29.8853 78.327C26.4978 77.0547 23.3132 75.2967 20.4314 73.1083C18.9387 71.9511 17.4807 70.794 16.1037 69.4749C15.0801 68.4834 14.1288 67.42 13.2571 66.2927C12.2273 64.9967 11.2321 63.6429 10.3064 62.2774C8.98572 60.3262 7.90195 58.2247 7.078 56.0173C6.31429 53.9576 5.59686 51.8863 5.02986 49.7571C4.62486 48.2644 4.486 46.6907 4.23143 45.1286C4.15043 44.6194 4.081 44.1103 4 43.6127V37.3641C4.081 36.9013 4.18514 36.4384 4.23143 35.964C4.56666 32.5062 5.38864 29.1131 6.673 25.8853C7.94532 22.4978 9.70327 19.3132 11.8917 16.4314C13.0489 14.9387 14.206 13.4807 15.5251 12.1037C16.5166 11.0801 17.58 10.1288 18.7073 9.25714C20.0033 8.22729 21.334 7.23214 22.7226 6.30643C24.6738 4.98572 26.7753 3.90195 28.9827 3.078C31.0424 2.31429 33.1137 1.59686 35.2429 1.02986C36.7471 0.624857 38.3209 0.486 39.8714 0.231429L41.3641 0H47.6359C48.0987 0.081 48.5616 0.185143 49.036 0.231429C52.4938 0.566658 55.8869 1.38864 59.1147 2.673C62.5022 3.94532 65.6868 5.70327 68.5686 7.89171C70.0613 9.04886 71.5193 10.206 72.8963 11.5251C73.9199 12.5166 74.8712 13.58 75.7429 14.7073C76.7727 16.0033 77.7679 17.334 78.6936 18.7226C80.0143 20.6738 81.098 22.7753 81.922 24.9827C82.6626 27.0424 83.4031 29.1137 83.9701 31.2313C84.3751 32.7356 84.514 34.3093 84.7686 35.8599C84.8496 36.369 84.919 36.8781 85 37.3757V43.6359ZM84.2479 40.9513C84.3368 33.1829 82.1312 25.561 77.9075 19.0405C73.6837 12.5201 67.6297 7.39115 60.5038 4.29629C53.3779 1.20143 45.4972 0.278315 37.849 1.6426C30.2008 3.00689 23.1253 6.5979 17.509 11.9657C11.8927 17.3335 7.98545 24.2394 6.27671 31.8181C4.56796 39.3967 5.13376 47.3111 7.90322 54.5697C10.6727 61.8282 15.5226 68.108 21.8454 72.6223C28.1681 77.1366 35.6825 79.6846 43.447 79.947C48.7035 80.1326 53.9439 79.2641 58.8595 77.3928C63.7751 75.5215 68.2664 72.6852 72.0688 69.0511C75.8712 65.417 78.9077 61.0585 80.9993 56.2325C83.091 51.4066 84.1955 46.2108 84.2479 40.9513Z" fill="white"/>
<path d="M84.2479 40.9513C84.225 48.7506 81.8929 56.3686 77.5453 62.8438C73.1977 69.319 67.0296 74.3615 59.8194 77.3351C52.6091 80.3087 44.6796 81.0801 37.0314 79.5521C29.3832 78.0241 22.3589 74.265 16.8447 68.7492C11.3305 63.2335 7.57353 56.208 6.04773 48.5594C4.52194 40.9107 5.2957 32.9815 8.27139 25.7721C11.2471 18.5627 16.2914 12.3961 22.7679 8.05041C29.2444 3.70471 36.8629 1.37456 44.6623 1.35396C49.8707 1.32168 55.0338 2.32394 59.8519 4.30261C64.67 6.28128 69.0473 9.19696 72.7298 12.8805C76.4122 16.5641 79.3266 20.9422 81.3039 25.7609C83.2812 30.5796 84.2817 35.7428 84.2479 40.9513ZM7.03197 40.5811C7.10273 46.1228 8.38188 51.5824 10.7802 56.5788C13.1784 61.5752 16.6381 65.9882 20.9177 69.5097C27.7287 75.034 36.2516 78.0128 45.021 77.9337C48.6118 77.9194 52.1803 77.3695 55.6088 76.3021C62.667 74.2789 68.9528 70.1784 73.6487 64.534C77.3014 60.3156 79.9416 55.3181 81.3675 49.9233C82.7934 44.5285 82.9674 38.8791 81.876 33.4068C80.601 26.5701 77.3877 20.2439 72.6188 15.1818C67.2021 9.16657 59.9408 5.12079 51.9754 3.67981C47.8938 2.82993 43.6936 2.71238 39.5708 3.33267C35.9822 3.861 32.48 4.86497 29.1565 6.3181C26.8459 7.46793 24.6256 8.79084 22.5145 10.2755C20.7236 11.4964 19.0776 12.9173 17.6083 14.5107C15.3186 16.9685 13.3262 19.6872 11.6721 22.6107C10.6478 24.3999 9.80654 26.2879 9.16111 28.246C7.74018 32.2028 7.01968 36.3769 7.03197 40.5811Z" fill="#4E3028"/>
<path d="M7.03197 40.5811C7.0102 36.3952 7.71475 32.2372 9.11463 28.2922C9.76006 26.3342 10.6013 24.4462 11.6256 22.657C13.2797 19.7334 15.2722 17.0148 17.5618 14.557C19.043 12.9446 20.705 11.508 22.5145 10.2755C24.6442 8.78832 26.8837 7.46536 29.2142 6.31811C32.5377 4.86498 36.0399 3.86101 39.6285 3.33268C43.7512 2.71239 47.9514 2.82993 52.0331 3.67982C59.9902 5.12561 67.2426 9.17101 72.6534 15.1818C77.4222 20.2439 80.6355 26.5701 81.9105 33.4068C83.0019 38.8791 82.828 44.5285 81.402 49.9233C79.9761 55.3181 77.3359 60.3156 73.6832 64.534C68.9825 70.1656 62.6972 74.2537 55.6433 76.2674C52.2148 77.3348 48.6463 77.8847 45.0555 77.899C36.2804 77.965 27.7569 74.9697 20.9522 69.4287C16.6726 65.9072 13.213 61.4942 10.8147 56.4978C8.4164 51.5014 7.13725 46.0418 7.06649 40.5001L7.03197 40.5811ZM47.5318 21.9164C46.8038 20.2669 46.1778 18.5743 45.6572 16.8481C45.327 15.1044 45.1029 13.3423 44.9861 11.5715H44.8356C43.3162 14.825 42.2793 18.2827 41.7576 21.8354C40.6005 19.4517 38.8532 17.9474 35.9719 17.9937C36.1339 18.4334 36.2612 18.8037 36.4116 19.1508C36.7087 19.8091 36.8624 20.523 36.8624 21.2452C36.8624 21.9675 36.7087 22.6814 36.4116 23.3397C36.0998 24.0399 35.8557 24.7684 35.6826 25.5151C35.4729 26.2872 35.4101 27.0919 35.4975 27.8872C35.8562 29.866 37.3373 31.1735 38.6333 32.5158H38.7838C39.3091 31.0717 40.1559 29.7659 41.2601 28.6972C41.6085 28.1815 41.8559 27.6043 41.9891 26.9962C42.0799 26.7139 42.1419 26.4232 42.1742 26.1284C43.4502 27.162 44.3459 28.591 44.7199 30.19C44.9267 29.925 45.08 29.6224 45.1712 29.299C45.5083 27.9169 45.5751 26.4828 45.3679 25.0754C45.3679 24.8092 45.3679 24.5431 45.3679 24.2654C46.8738 26.4323 47.5887 29.0512 47.3929 31.6827C48.9319 31.0578 49.4989 29.7387 50.3205 28.57C50.565 29.2304 50.7017 29.9258 50.7255 30.6297C50.6546 31.3492 50.523 32.0615 50.3321 32.7588C50.71 32.7089 51.0732 32.5801 51.3982 32.3808C51.7231 32.1814 52.0025 31.916 52.2182 31.6017C53.0807 30.3975 53.6439 29.0052 53.8613 27.5401C54.3563 24.4002 53.7946 21.1848 52.2645 18.3987C52.1854 18.2795 52.0963 18.1673 51.9983 18.0631C51.0546 19.8873 49.435 21.2702 47.4855 21.9164H47.5318ZM49.9386 73.606L67.6429 44.0757C67.5234 44.0693 67.4037 44.0693 67.2842 44.0757H59.0106C58.9157 44.0709 58.8209 44.0871 58.7329 44.1231C58.6449 44.1591 58.5659 44.214 58.5015 44.284C57.9808 45.0824 57.4948 45.904 56.9162 46.876H62.5746L62.6903 47.0611C58.4436 54.0734 54.2085 61.0857 49.9618 68.1558C49.7882 67.8781 49.6725 67.7045 49.5683 67.5194C47.7748 64.4182 45.9696 61.3287 44.1992 58.2622C42.4288 55.1958 40.7278 51.9674 38.9111 48.8315C38.7838 48.6001 38.5176 48.2992 38.2978 48.2877C37.3721 48.2877 36.4348 48.2877 35.4281 48.2877L49.9386 73.606ZM51.6281 43.9715L21.9936 43.6244L38.9226 73.4787C40.4038 71.014 41.8733 68.584 43.3198 66.154C43.4008 66.0267 43.4702 65.83 43.4123 65.7258C42.9495 64.858 42.4519 64.0017 41.9543 63.0991L39.0268 67.9128C38.8763 67.693 38.7722 67.5657 38.7028 67.4384C34.9073 60.7655 31.1158 54.1004 27.3281 47.443C27.1514 47.0958 27.0006 46.7361 26.8768 46.3668H27.6173L34.1783 46.4478C39.2119 46.5172 44.2571 46.6098 49.3022 46.6561C49.4641 46.6547 49.6242 46.6213 49.7732 46.5578C49.9221 46.4942 50.057 46.4018 50.1701 46.2858C50.6908 45.5337 51.1189 44.7468 51.6281 43.9715ZM47.0921 59.917L62.2622 34.7144L27.5479 34.2862C27.5941 34.426 27.6521 34.5615 27.7215 34.6912C29.0059 37.0055 30.2672 39.3198 31.5748 41.6341C31.6505 41.7669 31.7537 41.882 31.8774 41.9718C32.0011 42.0615 32.1425 42.124 32.2922 42.1548C33.2295 42.2242 34.1668 42.1548 35.2082 42.1548L32.2691 37.0287L57.4138 37.3527C57.2402 37.6882 57.1476 37.885 57.0319 38.0701L53.6184 43.7285C51.0726 47.9637 48.5385 52.2104 45.9812 56.4571C45.839 56.6542 45.7625 56.891 45.7625 57.134C45.7625 57.377 45.839 57.6139 45.9812 57.811C46.3631 58.459 46.6986 59.1648 47.0921 59.917Z" fill="white"/>
<path d="M47.4855 21.9164C49.4355 21.2865 51.0627 19.9205 52.0213 18.1093C52.1193 18.2135 52.2083 18.3257 52.2874 18.4449C53.8176 21.231 54.3792 24.4464 53.8843 27.5863C53.6668 29.0514 53.1036 30.4437 52.2411 31.6479C52.0254 31.9622 51.746 32.2276 51.4211 32.427C51.0961 32.6263 50.7329 32.7551 50.355 32.805C50.5459 32.1076 50.6775 31.3954 50.7484 30.6759C50.7246 29.972 50.5879 29.2766 50.3434 28.6161C49.5218 29.7733 48.9548 31.104 47.4158 31.7289C47.6144 29.0935 46.8993 26.4701 45.3909 24.3C45.3909 24.5777 45.3909 24.8439 45.3909 25.11C45.598 26.5174 45.5312 27.9515 45.1941 29.3336C45.1029 29.657 44.9496 29.9596 44.7428 30.2246C44.3688 28.6256 43.4732 27.1966 42.1971 26.163C42.1648 26.4578 42.1028 26.7486 42.012 27.0309C41.8788 27.6389 41.6314 28.2161 41.283 28.7319C40.1788 29.8006 39.332 31.1063 38.8067 32.5504H38.7141C37.4181 31.1503 35.937 29.8427 35.5783 27.9219C35.4909 27.1265 35.5537 26.3219 35.7634 25.5497C35.9364 24.803 36.1806 24.0745 36.4924 23.3743C36.7895 22.716 36.9432 22.0021 36.9432 21.2799C36.9432 20.5576 36.7895 19.8437 36.4924 19.1854C36.342 18.8267 36.2147 18.4564 36.0527 18.0283C38.9109 18.0283 40.6813 19.4863 41.8384 21.87C42.331 18.3096 43.3409 14.8403 44.8356 11.5715H44.9861C45.1029 13.3423 45.327 15.1044 45.6572 16.8481C46.1627 18.5732 46.7732 20.2658 47.4855 21.9164Z" fill="#4E3028"/>
<path d="M49.8922 73.6058L35.4395 48.1487C36.4462 48.1487 37.3835 48.1487 38.3092 48.1487C38.5291 48.1487 38.7952 48.4611 38.9225 48.6925C40.6929 51.8284 42.3939 54.9874 44.2106 58.1232C46.0273 61.2591 47.7862 64.3255 49.5798 67.3804C49.6839 67.5655 49.7996 67.7391 49.9732 68.0168C54.2431 60.9467 58.4782 53.9344 62.7018 46.9221L62.5861 46.7369H56.9508C57.5293 45.7649 58.0153 44.9434 58.5361 44.1449C58.6004 44.075 58.6794 44.0201 58.7674 43.9841C58.8554 43.9481 58.9502 43.9319 59.0452 43.9367H67.3188C67.4383 43.9303 67.558 43.9303 67.6775 43.9367L49.8922 73.6058Z" fill="#4E3028"/>
<path d="M51.6281 43.9715C51.1189 44.8047 50.6908 45.5915 50.1701 46.2858C50.057 46.4018 49.9221 46.4942 49.7732 46.5578C49.6242 46.6213 49.4641 46.6547 49.3022 46.6561C44.2571 46.6561 39.2119 46.5172 34.1783 46.4478L27.6173 46.3668H26.8768C27.0006 46.7361 27.1514 47.0958 27.3281 47.443C31.1081 54.1235 34.8993 60.7962 38.7025 67.4613C38.7719 67.5886 38.8761 67.7159 39.0265 67.9357L41.9541 63.122C42.4516 64.0246 42.9492 64.8809 43.4121 65.7487C43.4121 65.8529 43.4121 66.0496 43.3195 66.1769C41.8731 68.6069 40.4035 71.0369 38.9223 73.5016L21.9933 43.5663L51.6281 43.9715ZM39.0959 71.3377C39.1928 71.2245 39.2818 71.1046 39.3621 70.979C40.3456 69.4169 41.3292 67.8663 42.2896 66.281C42.8451 65.3785 42.8103 65.1239 42.0929 64.2097C41.9656 64.3949 41.8268 64.5569 41.7226 64.742L38.5058 69.9607C37.9388 70.8865 37.9619 70.9443 39.0033 71.3377H39.0959Z" fill="#4E3028"/>
<path d="M47.0921 59.917C46.6986 59.1648 46.3629 58.4589 45.9347 57.7762C45.7926 57.5791 45.7161 57.3423 45.7161 57.0993C45.7161 56.8563 45.7926 56.6195 45.9347 56.4224C48.492 52.1988 51.0262 47.9521 53.5719 43.6938L56.9854 38.0354C57.1012 37.8502 57.1937 37.6535 57.3673 37.3179L32.2691 37.0287L35.2427 42.0969C34.2013 42.0969 33.264 42.0969 32.3267 42.0969C32.177 42.0661 32.0356 42.0037 31.9119 41.9139C31.7882 41.8241 31.685 41.709 31.6093 41.5762C30.3017 39.2619 29.0404 36.9477 27.756 34.6334C27.6867 34.5036 27.6286 34.3681 27.5824 34.2284L62.2967 34.6565L47.0921 59.917ZM28.5776 34.9689C28.8012 35.31 29.0486 35.6348 29.3181 35.9409C29.4878 36.1175 29.712 36.2317 29.9546 36.2649C31.5283 36.3344 33.102 36.3807 34.6757 36.3922C37.8694 36.3922 41.0632 36.3922 44.2569 36.4617L58.1426 36.5774H58.7559C58.6974 36.7103 58.6277 36.8381 58.5476 36.9592C54.6904 43.3698 50.8333 49.7804 46.9762 56.1909C46.8299 56.4217 46.7059 56.6658 46.6059 56.9199C46.4986 57.1803 46.49 57.4708 46.5816 57.7371C46.6732 58.0034 46.8587 58.2271 47.1034 58.3664C48.7581 56.0521 60.7693 35.8715 60.7462 35.3508L28.5776 34.9689Z" fill="#4E3028"/>
<path d="M39.0959 71.3377H39.0033C37.9619 70.9443 37.9388 70.8865 38.5058 69.9607L41.723 64.8C41.8271 64.6149 41.966 64.4529 42.0933 64.2678C42.8107 65.1819 42.8454 65.4249 42.29 66.3391C41.3296 67.9243 40.346 69.4749 39.3624 71.037C39.2801 71.1428 39.1908 71.2431 39.0959 71.3377Z" fill="white"/>
<path d="M28.5317 34.9688L60.7581 35.3738C60.7581 35.8945 48.7701 56.1214 47.1154 58.3894C46.8706 58.2501 46.6851 58.0264 46.5935 57.7601C46.5019 57.4939 46.5105 57.2033 46.6178 56.943C46.7179 56.6888 46.8419 56.4447 46.9881 56.214C50.8452 49.8034 54.7024 43.3928 58.5595 36.9823C58.6396 36.8611 58.7093 36.7333 58.7678 36.6004H58.1545L44.2688 36.4847C41.0751 36.4847 37.8814 36.4847 34.6877 36.4153C33.1139 36.4153 31.5402 36.3574 29.9665 36.288C29.7239 36.2547 29.4997 36.1405 29.3301 35.964C29.0398 35.6524 28.7729 35.3198 28.5317 34.9688Z" fill="white"/>
</g>
<defs>
<filter id="filter0_d_130_248" x="0" y="0" width="89" height="89" filterUnits="userSpaceOnUse" color-interpolation-filters="sRGB">
<feFlood flood-opacity="0" result="BackgroundImageFix"/>
<feColorMatrix in="SourceAlpha" type="matrix" values="0 0 0 0 0 0 0 0 0 0 0 0 0 0 0 0 0 0 127 0" result="hardAlpha"/>
<feOffset dy="4"/>
<feGaussianBlur stdDeviation="2"/>
<feComposite in2="hardAlpha" operator="out"/>
<feColorMatrix type="matrix" values="0 0 0 0 0 0 0 0 0 0 0 0 0 0 0 0 0 0 0.25 0"/>
<feBlend mode="normal" in2="BackgroundImageFix" result="effect1_dropShadow_130_248"/>
<feBlend mode="normal" in="SourceGraphic" in2="effect1_dropShadow_130_248" result="shape"/>
</filter>
</defs>
</svg>
